<svg width="19" height="35" viewBox="0 0 19 35" xmlns="http://www.w3.org/2000/svg" xmlns:xlink="http://www.w3.org/1999/xlink"><title>left</title><desc>Created using Figma</desc><use xlink:href="#a" transform="translate(-8 -2)"/><defs><path id="a" d="M25.207 36.25a.697.697 0 0 0 .316-.07c.118-.047.223-.106.317-.176a.98.98 0 0 0 .246-.668.936.936 0 0 0-.246-.633L10.266 19.164 25.84 3.59a.936.936 0 0 0 .246-.633.856.856 0 0 0-.246-.633.912.912 0 0 0-.668-.281.766.766 0 0 0-.598.281L8.367 18.531a.803.803 0 0 0-.281.633c0 .234.094.445.281.633l16.207 16.207a.83.83 0 0 0 .281.176.94.94 0 0 0 .352.07z"/></defs></svg>