<svg width="32" height="28" viewBox="0 0 32 28" xmlns="http://www.w3.org/2000/svg" xmlns:xlink="http://www.w3.org/1999/xlink"><title>check</title><desc>Created using Figma</desc><use xlink:href="#a" fill="#309C50"/><defs><path id="a" d="M30.743.004c-.32 0-.6.16-.8.4-4.277 4.48-11.913 12.838-16.47 17.637l-5.957-4.599c-.48-.44-1.36-.36-1.76.16-.399.52-.24 1.4.32 1.76l6.797 5.199c.48.36 1.2.28 1.599-.12 4.478-4.68 12.753-13.758 17.19-18.398.32-.36.44-.88.24-1.32-.2-.48-.68-.76-1.16-.72zM0 3.604V26.8c0 .64.56 1.2 1.2 1.2h23.986c.64 0 1.2-.56 1.2-1.2V14.802c0-.64-.56-1.2-1.2-1.2-.64 0-1.2.6-1.2 1.2V25.6H2.4V4.803h20.388c.64 0 1.2-.56 1.2-1.2 0-.64-.6-1.2-1.2-1.2H1.2c-.64 0-1.199.68-1.199 1.2z"/></defs></svg>