<svg width="75" height="51" viewBox="0 0 75 51" xmlns="http://www.w3.org/2000/svg" xmlns:xlink="http://www.w3.org/1999/xlink"><title>camera</title><desc>Created using Figma</desc><use xlink:href="#a" fill="#FFF"/><defs><path id="a" d="M4.261.085C1.961.085 0 2.037 0 4.328c0 .17 0 .34.085.594l11.08 31.397c.256.68.852 1.104 1.62 1.104H23.01v7.637c0 1.442-1.108 2.546-2.556 2.546H9.374c-.938 0-1.705.763-1.705 1.697 0 .933.768 1.697 1.705 1.697H20.54c3.238 0 5.966-2.715 5.966-5.94v-7.637H54.63c.937 0 1.704-.764 1.704-1.698 0-.933-.767-1.697-1.704-1.697H13.977L3.494 4.158c.086-.424.341-.679.767-.679H59.66v32.246a1.706 1.706 0 0 0 3.41 0v-4.327h10.227c.937 0 1.704-.764 1.704-1.697V7.637c0-.933-.767-1.697-1.704-1.697H63.068V1.697C63.068.764 62.301 0 61.364 0H4.26v.085zm46.875 6.789c-2.812 0-5.113 2.29-5.113 5.091 0 2.8 2.3 5.092 5.113 5.092 2.813 0 5.114-2.292 5.114-5.092s-2.301-5.091-5.114-5.091zm11.932 2.545h8.523v18.67h-8.523V9.418zm-11.932.849c.938 0 1.705.764 1.705 1.697a1.706 1.706 0 0 1-3.41 0c0-.933.768-1.697 1.705-1.697z"/></defs></svg>