<svg width="77" height="40" viewBox="0 0 77 40" xmlns="http://www.w3.org/2000/svg" xmlns:xlink="http://www.w3.org/1999/xlink"><title>car</title><desc>Created using Figma</desc><use xlink:href="#a" fill="#FFF"/><defs><path id="a" d="M77 23.757c0-4.858-3.925-8.804-8.757-8.804H53.75c-2.19-1.443-4.303-3.492-6.492-5.617C42.5 4.706 37.67 0 31.102 0 16.23 0 0 10.702 0 20.418v10.777c0 .76.604 1.367 1.359 1.367h6.19C8.229 36.812 11.852 40 16.23 40c4.379 0 8.002-3.264 8.682-7.438h27.252c.68 4.25 4.303 7.438 8.681 7.438 4.379 0 8.078-3.264 8.681-7.59C73.754 31.879 77 28.235 77 23.757zM45.37 11.233c1.358 1.29 2.642 2.581 4 3.72H16.23c-3.02 0-5.51-2.202-5.963-5.162 5.435-4.022 13.135-7.059 20.835-7.059 5.435 0 9.965 4.327 14.268 8.501zM2.718 25.123H4.83c.755 0 1.36-.607 1.36-1.366 0-.759-.605-1.366-1.36-1.366H2.718v-1.973c0-2.733 1.962-5.92 5.208-8.805 1.133 3.491 4.454 5.996 8.304 5.996h7.474c3.397 0 6.115 2.733 6.115 6.148v6.148h-4.907c-.68-4.25-4.303-7.438-8.682-7.438-4.378 0-8.002 3.264-8.681 7.438H2.718v-4.782zm13.512 12.22c-3.321 0-6.114-2.732-6.114-6.148 0-3.34 2.717-6.148 6.114-6.148 3.398 0 6.115 2.733 6.115 6.148-.075 3.416-2.793 6.148-6.115 6.148zm44.615 0c-3.397 0-6.115-2.732-6.115-6.148 0-3.34 2.718-6.148 6.115-6.148 3.322 0 6.04 2.733 6.115 6.072v.152c-.076 3.416-2.793 6.072-6.115 6.072zm8.606-7.59c-.68-4.174-4.303-7.362-8.606-7.362-4.378 0-8.002 3.264-8.681 7.438H32.385v-6.148c0-2.353-.906-4.554-2.49-6.148h38.272c3.321 0 6.114 2.733 6.114 6.148.076 3.036-2.038 5.541-4.831 6.072z"/></defs></svg>