<svg width="66" height="66" viewBox="0 0 66 66" xmlns="http://www.w3.org/2000/svg" xmlns:xlink="http://www.w3.org/1999/xlink"><title>food</title><desc>Created using Figma</desc><use xlink:href="#a" transform="translate(0 22.69)" fill="#FFF"/><use xlink:href="#b" transform="translate(2.969 46.56)" fill="#FFF"/><use xlink:href="#c" transform="translate(8.25 33)" fill="#FFF"/><use xlink:href="#d" transform="translate(42.35 45.24)" fill="#FFF"/><use xlink:href="#e" transform="translate(33 41.25)" fill="#FFF"/><use xlink:href="#f" transform="translate(21.45 5.77)" fill="#FFF"/><use xlink:href="#g" transform="translate(31.625)" fill="#FFF"/><use xlink:href="#h" transform="translate(41.8 5.77)" fill="#FFF"/><defs><path id="a" d="M33 35.75c-18.563 0-33-7.837-33-17.875C0 7.838 14.438 0 33 0c18.563 0 33 7.838 33 17.875C66 27.913 51.562 35.75 33 35.75zm0-32.862c-16.363 0-30.25 6.874-30.25 15.124S16.637 33.139 33 33.139c16.362 0 30.25-6.875 30.25-15.125S49.362 2.886 33 2.886z"/><path id="b" d="M30.031 19.444c-12.65 0-24.475-6.875-29.837-17.325C-.22 1.43.056.606.744.194 1.43-.22 2.256.056 2.53.744c5.088 9.762 15.813 15.95 27.5 15.95 11.55 0 22.275-6.188 27.363-15.675.412-.688 1.237-.963 1.925-.55.687.412.962 1.237.55 1.925-5.638 10.312-17.188 17.05-29.838 17.05z"/><path id="c" d="M44.55 21.863c-.412 0-.825-.138-1.1-.55-.55-.55-.413-1.513.137-1.925 1.375-1.238 3.163-3.163 3.163-5.638 0-6.05-10.038-11-22-11-11.963 0-22 5.088-22 11 0 1.65.688 3.163 2.2 4.675.55.55.55 1.375 0 1.925a1.33 1.33 0 0 1-1.925 0C.962 18.425 0 16.087 0 13.75 0 6.05 10.863 0 24.75 0 38.638 0 49.5 6.05 49.5 13.75c0 2.75-1.375 5.5-4.125 7.7-.275.275-.55.413-.825.413z"/><path id="d" d="M2.612 2.75c1.443 0 2.613-.616 2.613-1.375C5.225.615 4.055 0 2.613 0 1.17 0 0 .616 0 1.375c0 .76 1.17 1.375 2.612 1.375z"/><path id="e" d="M3.987 4.125c2.203 0 3.988-.923 3.988-2.063C7.975.923 6.19 0 3.988 0 1.784 0 0 .923 0 2.063c0 1.139 1.785 2.062 3.987 2.062z"/><path id="f" d="M1.375 13.063C.55 13.063 0 12.512 0 11.687V1.376C0 .55.55 0 1.375 0S2.75.55 2.75 1.375v10.313c0 .687-.55 1.374-1.375 1.374z"/><path id="g" d="M1.375 18.837C.55 18.837 0 18.287 0 17.462V1.375C0 .55.55 0 1.375 0S2.75.55 2.75 1.375v16.087c0 .688-.55 1.375-1.375 1.375z"/><path id="h" d="M1.375 13.063C.55 13.063 0 12.512 0 11.687V1.376C0 .55.55 0 1.375 0S2.75.55 2.75 1.375v10.313c0 .687-.688 1.374-1.375 1.374z"/></defs></svg>