<svg width="55" height="68" viewBox="0 0 55 68" xmlns="http://www.w3.org/2000/svg" xmlns:xlink="http://www.w3.org/1999/xlink"><title>Greenhouse</title><desc>Created using Figma</desc><use xlink:href="#a" fill="#FFF"/><defs><path id="a" d="M43.539 25.092c.621 0 1.27-.054 1.94-.177 3.735-.688 6.84-3.33 8.747-7.437 1.606-3.464.24-10.163.079-10.914a1.136 1.136 0 0 0-.501-.722 1.14 1.14 0 0 0-.866-.145c-.324.077-7.977 1.915-10.75 4.859-3.398 3.607-4.502 7.893-4.83 10.852a1.156 1.156 0 0 0-.006.125v.732c-1.07 1.316-1.835 2.388-2.376 3.358-.31-.504-.637-.997-.99-1.517a61.354 61.354 0 0 1-1.162-1.77v-.773c.162-3.14-.112-10.98-6.002-16.71C23.342 1.469 14.138.07 13.748.013a1.13 1.13 0 0 0-1.268.862c-.118.505-2.83 12.412 2.548 18.043 2.565 2.685 6.584 4.324 12.02 4.878.79.08 1.584.12 2.38.12.555 0 1.11-.045 1.665-.084.36.565.706 1.084 1.02 1.547.438.65.823 1.226 1.166 1.822h-2.718c-.626 0-1.132.506-1.132 1.133v1.45l-5.011-3.513a1.133 1.133 0 0 0-1.297 0L1.448 41.462A3.406 3.406 0 0 0 0 44.246v1.087c0 1.875 1.524 3.4 3.396 3.4h1.131V64.6c0 1.875 1.524 3.4 3.396 3.4h31.693a3.402 3.402 0 0 0 3.395-3.4V48.733h1.132a3.402 3.402 0 0 0 3.396-3.4v-1.087a3.41 3.41 0 0 0-1.448-2.785h-.001l-5.343-3.745v-9.383a1.13 1.13 0 0 0-1.131-1.133h-2.91c.426-.88 1.086-1.86 2.097-3.127 1.156.503 2.802 1.019 4.736 1.019zm.296-12.98c1.626-1.725 5.957-3.206 8.472-3.908.384 2.341.777 6.353-.136 8.32-.919 1.982-3.063 5.417-7.1 6.163-1.833.336-3.466.008-4.678-.422 2.666-2.637 5.72-3.734 7.424-4.165l-.554-2.197a18.94 18.94 0 0 0-7.309 3.717c.522-2.341 1.616-5.106 3.881-7.508zm-16.63 9.419c-4.812-.49-8.36-1.896-10.54-4.181-3.707-3.883-2.69-12.027-2.184-14.916 2.992.553 8.605 1.945 10.763 4.045 4.056 3.945 5.104 9.068 5.304 12.49a44.492 44.492 0 0 0-8.345-8.53l-1.392 1.788a42.008 42.008 0 0 1 8.858 9.404c-.81.009-1.627-.013-2.463-.1zm-7.963 44.202v-13.6h9.055v13.6h-9.055zm19.725-26.498l5.825 4.083c.303.212.483.56.483.928v1.087c0 .626-.507 1.134-1.132 1.134H41.88c-.626 0-1.132.506-1.132 1.133v17c0 .626-.507 1.133-1.131 1.133H30.56V51c0-.627-.506-1.133-1.132-1.133H18.11c-.626 0-1.132.506-1.132 1.133v14.733H7.923A1.133 1.133 0 0 1 6.791 64.6v-17c0-.627-.506-1.133-1.132-1.133H3.396a1.133 1.133 0 0 1-1.132-1.134v-1.087c0-.37.18-.716.482-.927l21.023-14.736 6.143 4.306a1.132 1.132 0 0 0 1.78-.93v-2.493h6.792v8.84c0 .37.18.717.483.929z"/></defs></svg>