<svg width="70" height="52" viewBox="0 0 70 52" xmlns="http://www.w3.org/2000/svg" xmlns:xlink="http://www.w3.org/1999/xlink"><title>gym</title><desc>Created using Figma</desc><use xlink:href="#a" transform="rotate(-30 51.521 25.225)" fill="#FFF"/><defs><path id="a" d="M72.444 12.328h-5.123V6.964c0-1.6-1.36-2.962-2.962-2.962h-3.522c-.24 0-.56.08-.8.08v-1.12C60.036 1.36 58.675 0 57.074 0H51.31c-1.6 0-2.962 1.36-2.962 2.962v9.285H25.215V3.042c0-1.601-1.36-2.962-2.962-2.962H16.49c-1.6 0-2.962 1.36-2.962 2.962v1.12c-.24-.08-.48-.08-.8-.08H9.206c-1.601 0-2.962 1.361-2.962 2.962v5.364H1.12c-.56 0-1.121.48-1.121 1.04v8.405c0 .56.48 1.04 1.12 1.04h5.124v5.364c0 1.601 1.36 2.962 2.962 2.962h3.522c.24 0 .56-.08.8-.08v1.12c0 1.602 1.361 2.962 2.962 2.962h5.764c1.6 0 2.961-1.36 2.961-2.961v-9.366H48.35v9.286c0 1.6 1.361 2.961 2.962 2.961h5.764c1.6 0 2.961-1.36 2.961-2.961v-1.121c.24.08.48.08.801.08h3.522c1.601 0 2.962-1.36 2.962-2.962v-5.363h5.123c.56 0 1.12-.48 1.12-1.04v-8.326c-.08-.64-.56-1.12-1.12-1.12zm-66.2 8.405H2.24v-6.244h4.083v6.244h-.08zm7.284 7.524c0 .4-.32.8-.8.8H9.206c-.4 0-.8-.32-.8-.8V6.964c0-.4.32-.8.8-.8h3.522c.4 0 .8.32.8.8v21.293zm9.526-14.809V32.26c0 .4-.32.8-.8.8H16.49c-.4 0-.8-.32-.8-.8V3.042c0-.4.32-.8.8-.8h5.764c.4 0 .8.32.8.8v10.406zm25.295 7.285H25.215v-6.244H48.35v6.244zm9.526-13.769V32.18c0 .4-.32.8-.8.8H51.31c-.4 0-.8-.32-.8-.8V3.042c0-.4.32-.8.8-.8h5.764c.4 0 .8.32.8.8v3.922zm7.205 6.484v14.889c0 .4-.32.8-.8.8h-3.523c-.4 0-.8-.32-.8-.8V6.964c0-.4.32-.8.8-.8h3.522c.4 0 .8.32.8.8v6.484zm6.243 7.285h-4.082v-6.244h4.082v6.244z"/></defs></svg>