<svg width="59" height="69" viewBox="0 0 59 69" xmlns="http://www.w3.org/2000/svg" xmlns:xlink="http://www.w3.org/1999/xlink"><title>pool</title><desc>Created using Figma</desc><use xlink:href="#a" fill="#FFF"/><use xlink:href="#b" transform="translate(.07 58.12)" fill="#FFF"/><defs><path id="a" d="M.679 55.933a1.583 1.583 0 0 0 2.19-.42 6.729 6.729 0 0 1 5.64-2.96 6.743 6.743 0 0 1 5.588 3.06l.042.065a9.892 9.892 0 0 0 16.547.238 1.64 1.64 0 0 0 .114-.197l.14-.296a6.73 6.73 0 0 1 5.63-2.871 6.743 6.743 0 0 1 5.533 3.052l.041.066a9.89 9.89 0 0 0 16.547.238 1.577 1.577 0 0 0-1.606-2.463 1.58 1.58 0 0 0-1.012.697 6.73 6.73 0 0 1-5.64 2.961 6.744 6.744 0 0 1-5.588-3.06l-.042-.066a9.874 9.874 0 0 0-4.939-3.986V9.788a6.63 6.63 0 0 1 1.862-4.846 6.652 6.652 0 0 1 4.786-2.028 6.661 6.661 0 0 1 4.785 2.028 6.638 6.638 0 0 1 1.862 4.846 1.577 1.577 0 0 0 1.577 1.464 1.582 1.582 0 0 0 1.576-1.464 9.78 9.78 0 0 0-2.872-6.921 9.813 9.813 0 0 0-13.865 0 9.78 9.78 0 0 0-2.872 6.92v9.287H14.616V9.788a6.63 6.63 0 0 1 1.862-4.846 6.652 6.652 0 0 1 4.785-2.028 6.661 6.661 0 0 1 4.786 2.028 6.638 6.638 0 0 1 1.862 4.846 1.577 1.577 0 0 0 1.576 1.464 1.582 1.582 0 0 0 1.577-1.464 9.78 9.78 0 0 0-2.872-6.921 9.813 9.813 0 0 0-13.866 0 9.78 9.78 0 0 0-2.871 6.92v40.09a9.837 9.837 0 0 0-6.24.065 9.819 9.819 0 0 0-4.94 3.805 1.576 1.576 0 0 0 .404 2.186zm13.937-24.145h22.079v6.41H14.616v-6.41zm22.079-9.599v6.41H14.616v-6.41h22.079zM14.616 41.346h22.079v8.07h-.223a9.893 9.893 0 0 0-8.232 4.347 1.634 1.634 0 0 0-.115.198l-.099.28a6.73 6.73 0 0 1-5.63 2.87 6.742 6.742 0 0 1-5.533-3.052l-.04-.066a9.867 9.867 0 0 0-2.207-2.465V41.346z"/><path id="b" d="M58.234 4.34a1.583 1.583 0 0 0-2.19.418 6.73 6.73 0 0 1-5.641 2.962 6.743 6.743 0 0 1-5.588-3.06v-.066a9.892 9.892 0 0 0-16.547-.238 1.638 1.638 0 0 0-.115.197l-.14.296a6.73 6.73 0 0 1-5.636 2.874 6.743 6.743 0 0 1-5.535-3.063v-.066A9.892 9.892 0 0 0 .295 4.356a1.577 1.577 0 0 0 1.606 2.463 1.582 1.582 0 0 0 1.012-.696A6.73 6.73 0 0 1 8.554 3.16a6.743 6.743 0 0 1 5.588 3.06v.066a9.872 9.872 0 0 0 8.209 4.593 9.891 9.891 0 0 0 8.338-4.355c.043-.063.081-.129.115-.197l.14-.296a6.73 6.73 0 0 1 5.636-2.874 6.743 6.743 0 0 1 5.535 3.063v.066a9.89 9.89 0 0 0 16.547.238 1.576 1.576 0 0 0-.428-2.186z"/></defs></svg>