<svg width="45" height="59" viewBox="0 0 45 59" xmlns="http://www.w3.org/2000/svg" xmlns:xlink="http://www.w3.org/1999/xlink"><title>security</title><desc>Created using Figma</desc><use xlink:href="#a" fill="#FFF"/><defs><path id="a" d="M44.28 8.112L22.89.072a1.103 1.103 0 0 0-.78 0L.72 8.111C.287 8.274 0 8.689 0 9.153v26.176c0 4.416 2.32 8.554 7.3 13.025 3.52 3.157 8.058 6.15 12.446 9.046.714.471 1.428.942 2.14 1.415a1.104 1.104 0 0 0 1.227 0c.707-.47 1.418-.94 2.13-1.407 4.392-2.898 8.934-5.894 12.457-9.055 4.98-4.47 7.3-8.608 7.3-13.024V9.153c0-.464-.288-.879-.72-1.041zm-1.5 27.217c0 3.737-2.085 7.349-6.56 11.366-3.401 3.05-7.874 6-12.198 8.854-.509.334-1.016.669-1.522 1.004l-1.533-1.012c-4.321-2.851-8.79-5.798-12.186-8.845-4.476-4.018-6.56-7.63-6.56-11.367V9.924L22.5 2.3l20.28 7.623v25.405zM22.5 23.306a9.242 9.242 0 0 0-6.587 2.736 1.114 1.114 0 0 0 0 1.573 1.107 1.107 0 0 0 1.57 0A7.043 7.043 0 0 1 22.5 25.53a7.04 7.04 0 0 1 5.017 2.084 1.105 1.105 0 0 0 1.57 0 1.114 1.114 0 0 0 0-1.573 9.24 9.24 0 0 0-6.587-2.736zm0 9.762c-.614 0-1.11.499-1.11 1.113v8.66a1.111 1.111 0 0 0 2.22 0v-8.66a1.11 1.11 0 0 0-1.11-1.113zm0-4.126c-.987 0-1.914.385-2.61 1.084a1.115 1.115 0 0 0 0 1.574 1.106 1.106 0 0 0 1.57-.001c.554-.558 1.526-.558 2.081 0a1.107 1.107 0 0 0 1.57 0 1.114 1.114 0 0 0 0-1.573 3.665 3.665 0 0 0-2.611-1.084zm0-10.683a14.239 14.239 0 0 0-10.148 4.214 1.114 1.114 0 0 0 0 1.573 1.107 1.107 0 0 0 1.57 0 12.037 12.037 0 0 1 8.578-3.563c3.239 0 6.286 1.266 8.576 3.563.216.217.5.325.784.325.285 0 .569-.108.785-.325a1.115 1.115 0 0 0 0-1.574A14.235 14.235 0 0 0 22.5 18.259zm-13.8.552a1.114 1.114 0 0 0 0 1.573 1.107 1.107 0 0 0 1.57 0 17.16 17.16 0 0 1 12.228-5.078c4.62 0 8.964 1.804 12.231 5.078a1.105 1.105 0 0 0 1.57 0 1.114 1.114 0 0 0 0-1.573 19.365 19.365 0 0 0-13.8-5.73A19.366 19.366 0 0 0 8.7 18.81z"/></defs></svg>