<svg width="70" height="69" viewBox="0 0 70 69" xmlns="http://www.w3.org/2000/svg" xmlns:xlink="http://www.w3.org/1999/xlink"><title>medical 2</title><desc>Created using Figma</desc><use xlink:href="#a" transform="translate(.98 26.54)" fill="#FFF"/><use xlink:href="#b" transform="translate(5.747 31.54)" fill="#FFF"/><use xlink:href="#c" fill="#FFF"/><use xlink:href="#d" transform="translate(40.028 45.03)" fill="#FFF"/><use xlink:href="#e" transform="translate(17.61 22.82)" fill="#FFF"/><use xlink:href="#f" transform="translate(38.858 39.6)" fill="#FFF"/><use xlink:href="#g" transform="translate(53.719 52.27)" fill="#FFF"/><use xlink:href="#h" transform="translate(57.904 56.57)" fill="#FFF"/><use xlink:href="#i" transform="translate(17.634 43.74)" fill="#FFF"/><defs><path id="a" d="M20.592 42.334C9.235 42.334 0 32.84 0 21.168 0 9.495 9.236 0 20.592 0c11.356 0 20.593 9.495 20.593 21.168 0 11.67-9.237 21.166-20.593 21.166zm0-40.204c-10.21 0-18.52 8.54-18.52 19.038 0 10.495 8.31 19.036 18.52 19.036 10.212 0 18.52-8.54 18.52-19.036 0-10.498-8.308-19.038-18.52-19.038z"/><path id="b" d="M15.825 32.533C7.099 32.533 0 25.237 0 16.268 0 7.298 7.099 0 15.825 0c8.726 0 15.824 7.297 15.824 16.268 0 8.97-7.098 16.265-15.824 16.265zm0-30.403C8.24 2.13 2.073 8.472 2.073 16.268c0 7.793 6.168 14.135 13.752 14.135 7.584 0 13.752-6.342 13.752-14.135 0-7.796-6.168-14.138-13.752-14.138z"/><path id="c" d="M18.646 28.906c-.466 0-.886-.32-1.004-.8L11.182 2.13H1.036C.466 2.13 0 1.654 0 1.065 0 .477.465 0 1.036 0h10.952c.473 0 .886.33 1.004.8l6.657 26.776c.143.57-.194 1.15-.748 1.296a.947.947 0 0 1-.255.034z"/><path id="d" d="M21.83 16.604c-.373 0-.736-.21-.918-.578L13.962 2.13H1.036C.46 2.13 0 1.653 0 1.064 0 .476.461 0 1.036 0h13.563c.387 0 .743.223.918.579l7.235 14.474a1.076 1.076 0 0 1-.448 1.432.992.992 0 0 1-.474.119z"/><path id="e" d="M30.658 18.915c-.572 0-1.033-.475-1.037-1.062L29.585 2.13H1.035C.462 2.13 0 1.653 0 1.064 0 .477.462 0 1.036 0H30.62c.57 0 1.032.474 1.036 1.062l.037 16.786a1.05 1.05 0 0 1-1.033 1.067h-.003z"/><path id="f" d="M15.898 7.555a1.05 1.05 0 0 1-1.037-1.065V2.13H1.037C.466 2.129 0 1.653 0 1.064 0 .476.466 0 1.036 0h14.862c.57 0 1.035.476 1.035 1.064v5.427c0 .588-.464 1.064-1.035 1.064z"/><path id="g" d="M8.14 16.734C3.65 16.734 0 12.982 0 8.368S3.65 0 8.14 0c4.487 0 8.141 3.754 8.141 8.368 0 4.614-3.653 8.366-8.142 8.366zm0-14.604c-3.348 0-6.068 2.797-6.068 6.238 0 3.438 2.72 6.236 6.067 6.236s6.071-2.798 6.071-6.236c0-3.44-2.723-6.238-6.07-6.238z"/><path id="h" d="M3.954 8.133C1.772 8.133 0 6.309 0 4.068 0 1.825 1.772 0 3.954 0c2.18 0 3.959 1.825 3.959 4.068 0 2.24-1.777 4.065-3.959 4.065zm0-6.003c-1.04 0-1.883.87-1.883 1.938s.843 1.935 1.883 1.935c1.041 0 1.886-.867 1.886-1.935S4.996 2.13 3.954 2.13z"/><path id="i" d="M3.955 8.133C1.776 8.133 0 6.309 0 4.068 0 1.823 1.776 0 3.955 0 6.14 0 7.912 1.823 7.912 4.068c0 2.24-1.772 4.065-3.957 4.065zm0-6.003c-1.037 0-1.882.87-1.882 1.938 0 1.067.845 1.934 1.882 1.934 1.039 0 1.886-.867 1.886-1.934C5.841 3 4.994 2.13 3.955 2.13z"/></defs></svg>