<svg width="208" height="70" viewBox="0 0 208 70" xmlns="http://www.w3.org/2000/svg" xmlns:xlink="http://www.w3.org/1999/xlink"><title>Лого</title><desc>Created using Figma</desc><use xlink:href="#a" transform="translate(92 1.248)" fill="#212224"/><use xlink:href="#b" transform="translate(113.265 1.248)" fill="#212224"/><use xlink:href="#c" transform="translate(132.075 1.248)" fill="#212224"/><use xlink:href="#d" transform="translate(149.902 1.248)" fill="#212224"/><use xlink:href="#e" transform="translate(169.104 1)" fill="#212224"/><g fill="#212224"><use xlink:href="#f" transform="translate(92.147 26.547)"/><use xlink:href="#g" transform="translate(123.038 26.547)"/><use xlink:href="#h" transform="translate(146.611 26.398)"/><use xlink:href="#i" transform="translate(162.327 26.547)"/><use xlink:href="#j" transform="translate(186.538 26.547)"/></g><g fill="#212224"><use xlink:href="#k" transform="translate(92.248 52.99)"/><use xlink:href="#l" transform="translate(96.371 52.94)"/><use xlink:href="#m" transform="translate(100.644 53.089)"/><use xlink:href="#n" transform="translate(105.064 53.139)"/><use xlink:href="#o" transform="translate(112.086 53.089)"/><use xlink:href="#p" transform="translate(117.685 53.04)"/><use xlink:href="#q" transform="translate(122.105 53.139)"/><use xlink:href="#r" transform="translate(127.998 52.99)"/><use xlink:href="#s" transform="translate(132.025 53.04)"/><use xlink:href="#t" transform="translate(138.017 52.99)"/><use xlink:href="#u" transform="translate(142.781 53.139)"/><use xlink:href="#v" transform="translate(148.723 53.04)"/><use xlink:href="#w" transform="translate(153.192 53.089)"/><use xlink:href="#x" transform="translate(157.809 52.99)"/><use xlink:href="#y" transform="translate(162.671 53.089)"/><use xlink:href="#z" transform="translate(169.595 53.089)"/><use xlink:href="#A" transform="translate(175.243 52.99)"/><use xlink:href="#B" transform="translate(182.168 53.089)"/><use xlink:href="#C" transform="translate(187.521 53.04)"/><use xlink:href="#x" transform="translate(192.432 52.99)"/><use xlink:href="#D" transform="translate(196.95 53.139)"/><use xlink:href="#E" transform="translate(202.254 53.089)"/><use xlink:href="#F" transform="translate(92.196 62.284)"/><use xlink:href="#G" transform="translate(96.076 62.334)"/><use xlink:href="#H" transform="translate(103.001 62.384)"/><use xlink:href="#I" transform="translate(108.698 62.284)"/><use xlink:href="#J" transform="translate(113.461 62.384)"/><use xlink:href="#K" transform="translate(120.239 62.334)"/><use xlink:href="#L" transform="translate(125.936 62.384)"/><use xlink:href="#M" transform="translate(131.24 62.433)"/><use xlink:href="#N" transform="translate(138.017 62.384)"/><use xlink:href="#O" transform="translate(144.352 62.334)"/><use xlink:href="#P" transform="translate(152.308 62.384)"/><use xlink:href="#Q" transform="translate(157.661 62.384)"/><use xlink:href="#R" transform="translate(164.684 62.433)"/><use xlink:href="#S" transform="translate(170.185 62.433)"/><use xlink:href="#T" transform="translate(174.752 62.384)"/><use xlink:href="#U" transform="translate(181.136 62.334)"/></g><use xlink:href="#V" transform="translate(0 .09)" fill="url(#W)"/><use xlink:href="#X" transform="translate(.09)" fill="url(#Y)"/><defs><linearGradient id="W" x2="1" gradientUnits="userSpaceOnUse" gradientTransform="matrix(54.7358 39.9936 -39.8923 54.8748 25.485 -14.063)"><stop offset="0" stop-color="#6BB476"/><stop offset=".131" stop-color="#61A275"/><stop offset=".296" stop-color="#569071"/><stop offset=".465" stop-color="#4D826C"/><stop offset=".636" stop-color="#467867"/><stop offset=".813" stop-color="#427264"/><stop offset="1" stop-color="#417063"/></linearGradient><linearGradient id="Y" x2="1" gradientUnits="userSpaceOnUse" gradientTransform="matrix(108.718 90.5857 -90.3562 108.994 39.328 -53.45)"><stop offset="0" stop-color="#B8986D"/><stop offset=".3" stop-color="#F8E2A7"/><stop offset="1" stop-color="#9C7A53"/></linearGradient><path id="a" d="M16.305 2.088v13.966h2.848v5.915h-1.375c-.098-.994-.196-1.69-.344-2.187-.147-.497-.343-.795-.687-1.044-.344-.199-.835-.298-1.473-.298H3.88c-.639 0-1.13.1-1.474.298-.343.199-.54.547-.687 1.044-.147.497-.246 1.193-.344 2.187H0v-5.915h1.179c.687 0 1.227-.199 1.62-.646.344-.447.639-1.044.786-1.889.147-.795.344-2.037.54-3.678l.884-7.753H2.357V0h16.796v2.088h-2.848zM12.62 16.054V2.386H8.104L7.22 9.89c-.196 1.74-.442 3.082-.736 4.026-.295.944-.737 1.69-1.326 2.187h7.464v-.05z"/><path id="b" d="M13.947.646c1.08.447 1.965 1.094 2.554 1.889.59.845.933 1.79.933 2.883s-.294 2.087-.933 2.882c-.59.845-1.473 1.442-2.554 1.89-1.08.447-2.357.695-3.83.695H6.532v5.368H9.38v2.187H0v-2.088h2.898V2.088H0V0h10.117c1.424 0 2.701.199 3.83.646zM12.72 8.052c.54-.547.785-1.392.785-2.585s-.245-2.037-.785-2.584c-.54-.547-1.375-.795-2.603-.795H6.532v6.76h3.585c1.178 0 2.063-.25 2.603-.796z"/><path id="c" d="M15.47 13.122v5.318H0v-2.088h2.898V2.088H0V0h14.979v5.318h-1.375c-.098-.845-.197-1.441-.344-1.839-.147-.397-.344-.696-.688-.845-.343-.199-.834-.248-1.473-.248H6.483v5.716h5.45v2.087h-5.45v5.865h5.058c.639 0 1.13-.1 1.473-.248.344-.2.54-.448.688-.845.147-.398.245-.994.344-1.84h1.424z"/><path id="d" d="M16.55 10.19c.491.645.737 1.49.737 2.534 0 1.79-.638 3.181-1.964 4.175-1.326.994-3.143 1.491-5.5 1.491H0v-2.087h2.898V2.088H0V0h9.577C11 0 12.229.199 13.26.646c1.031.398 1.866 1.044 2.406 1.79.54.795.835 1.69.835 2.733 0 .845-.196 1.54-.54 2.088a4.119 4.119 0 0 1-1.719 1.391c1.031.398 1.817.895 2.308 1.541zM6.532 2.087v5.517h3.094c1.08 0 1.817-.2 2.308-.547.442-.348.688-.994.688-1.889 0-1.044-.246-1.79-.786-2.286-.54-.497-1.277-.795-2.26-.795H6.533zm5.942 13.32c.639-.646.933-1.54.933-2.684 0-1.044-.294-1.839-.884-2.286-.59-.448-1.522-.696-2.848-.696H6.58v6.61h3.29c1.08 0 1.965-.348 2.603-.944z"/><path id="e" d="M4.518 17.794c-1.424-.796-2.554-1.889-3.34-3.33C.394 13.022 0 11.382 0 9.494c0-1.89.393-3.53 1.179-4.971a8.032 8.032 0 0 1 3.34-3.33C5.941.398 7.611 0 9.478 0c1.866 0 3.535.398 4.96 1.193 1.424.795 2.553 1.889 3.34 3.33.785 1.441 1.178 3.082 1.178 4.97 0 1.889-.393 3.53-1.179 4.97a8.04 8.04 0 0 1-3.34 3.33c-1.424.796-3.093 1.194-4.96 1.194-1.866-.05-3.536-.398-4.96-1.193zm7.858-1.84c.835-.596 1.473-1.49 1.964-2.584.442-1.093.688-2.435.688-3.877 0-1.49-.246-2.783-.688-3.877-.442-1.093-1.13-1.988-1.964-2.584-.835-.597-1.817-.895-2.898-.895-1.08 0-2.062.298-2.897.895-.835.596-1.473 1.491-1.965 2.584-.442 1.094-.687 2.436-.687 3.877 0 1.491.245 2.784.687 3.877.442 1.094 1.13 1.988 1.965 2.585.835.596 1.817.894 2.897.894 1.08 0 2.063-.298 2.898-.894z"/><path id="f" d="M29.466 16.352v2.088h-4.861l-5.943-8.4-2.112 2.336v3.976h2.85v2.088h-9.38v-2.088h2.897v-3.976l-2.112-2.336-5.942 8.4H0v-2.088h2.554l6.188-8.598-5.206-5.666H.786V0H8.25v2.088H6.53l6.336 6.76v-6.76H9.97V0h9.38v2.088H16.5v6.76l6.336-6.76h-1.72V0h7.465v2.088h-2.75l-5.107 5.616 6.188 8.599h2.553v.05z"/><path id="g" d="M18.564 2.088v14.215h2.848v2.087h-9.38v-2.087h2.898V6.163l-8.398 9.444v.696H9.38v2.087H0v-2.087h2.898V2.088H0V0h9.38v2.088H6.532v9.94l8.398-9.443v-.497h-2.85V0h9.38v2.088h-2.897z"/><path id="h" d="M12.621 10.636c.54.746.786 1.591.786 2.635 0 1.093-.294 2.087-.884 2.932-.589.845-1.424 1.491-2.455 1.988-1.08.497-2.308.696-3.684.696-1.276 0-2.406-.199-3.34-.596-.981-.398-1.718-.945-2.258-1.59C.246 16.003 0 15.208 0 14.314c0-.696.147-1.243.491-1.591.295-.398.737-.596 1.326-.596.54 0 .933.149 1.277.447.344.298.491.696.491 1.193 0 .646-.295 1.143-.884 1.441.59 1.044 1.572 1.541 2.947 1.541 1.178 0 2.112-.348 2.848-1.044.737-.696 1.08-1.64 1.08-2.783 0-.895-.245-1.59-.785-2.088-.491-.497-1.277-.696-2.21-.696-.147 0-.393 0-.737.05l-1.228.15-.785-1.69 2.013-.547c1.032-.249 1.768-.597 2.26-.994.49-.398.736-1.044.736-1.89 0-.894-.246-1.64-.737-2.236-.49-.596-1.227-.894-2.21-.894-1.13 0-1.915.447-2.406 1.292.59.298.884.745.884 1.441 0 .497-.147.895-.491 1.193-.344.298-.737.447-1.277.447-.54 0-.982-.198-1.326-.546-.295-.398-.491-.895-.491-1.59 0-.846.245-1.591.736-2.237.492-.647 1.18-1.192 2.112-1.54C4.518.149 5.55 0 6.68 0c1.228 0 2.308.199 3.192.646.933.447 1.621 1.044 2.112 1.84.491.794.737 1.69.737 2.633 0 1.74-.786 2.983-2.407 3.778.982.398 1.768.994 2.308 1.74z"/><path id="i" d="M19.3 2.088v14.215h2.849v2.087h-9.38v-2.087h2.897V9.94H6.532v6.362H9.38v2.087H0v-2.087h2.898V2.088H0V0h9.38v2.088H6.532v5.318h9.134V2.088H12.77V0h9.38v2.088h-2.848z"/><path id="j" d="M18.613 2.088v14.215h2.849v2.087h-9.38v-2.087h2.897V6.163L6.58 15.607v.696h2.848v2.087H0v-2.087h2.898V2.088H0V0h9.38v2.088H6.532v9.94l8.398-9.443v-.497h-2.85V0h9.38v2.088h-2.848z"/><path id="k" d="M3.438 3.777l.098.1-.196.298c-.197.1-.393.199-.639.249-.196.05-.442.099-.638.099-.442 0-.835-.1-1.13-.249a1.454 1.454 0 0 1-.687-.745A2.618 2.618 0 0 1 0 2.386c0-.398.05-.746.196-1.044.148-.298.295-.497.54-.696.246-.149.54-.348.885-.497.245-.1.54-.149.835-.149.245 0 .442 0 .589.05.147.05.344.1.54.199-.098.397-.098.795-.098 1.192h-.295v-.248c0-.199-.049-.348-.098-.398-.05-.1-.196-.149-.393-.248-.196-.1-.393-.1-.638-.1-.393 0-.737.15-.933.398-.197.248-.344.646-.344 1.093 0 .647.147 1.144.49 1.541.296.348.688.497 1.13.497.197 0 .344 0 .54-.05.148 0 .344-.099.492-.149z"/><path id="l" d="M.884 2.237c0 .596.147 1.043.442 1.342.295.298.688.447 1.13.447.196 0 .392-.05.638-.1.196-.05.393-.198.59-.298l.098.05-.148.398c-.245.149-.49.248-.786.348-.245.05-.54.099-.834.099-.59 0-1.08-.199-1.474-.596C.147 3.529 0 3.032 0 2.337c0-.498.098-.945.295-1.343C.442.746.688.497 1.08.298 1.473.1 1.817 0 2.16 0c.541 0 .934.15 1.278.497.294.298.442.746.442 1.342v.249c-.197.05-.393.099-.54.099-.344 0-.786.05-1.326.05H.884zm0-.299c.442 0 .982.05 1.522.05.246 0 .442 0 .639-.05V1.69c0-.249-.05-.497-.147-.746C2.848.795 2.7.696 2.554.596 2.406.497 2.21.447 1.964.447c-.343 0-.589.1-.785.398-.197.15-.295.547-.295 1.093z"/><path id="m" d="M.344 1.292H.049V.895A8.15 8.15 0 0 0 0 0c.59.05.982.05 1.13.05h1.915c.245 0 .59 0 1.13-.05-.05.497-.05.795-.05.895v.397H3.88C3.83.795 3.782.497 3.732.447c-.098-.05-.49-.05-1.178-.05 0 .2-.05.349-.05.547v2.933c0 .05.05.1.099.149.049.05.147.05.295.05h.294v.248c-.49 0-.884-.05-1.228-.05-.294 0-.638 0-1.03.05v-.248h.343c.196 0 .344-.05.393-.1.049-.1.098-.298.098-.696V2.137c0-.795 0-1.391-.05-1.74h-.245c-.54 0-.884 0-.933.05-.098.05-.147.299-.196.845z"/><path id="n" d="M.393 4.274v-.198c.196-.1.344-.2.344-.249.049-.1.049-.646.049-1.59 0-1.044 0-1.64-.05-1.79C.689.347.59.25.345.25H0V0c.393 0 .737.05 1.031.05.344 0 .737 0 1.228-.05v.249h-.295c-.245 0-.392.099-.442.248-.049.15-.049.547-.049 1.143v.199h.639c.638 0 1.08.1 1.424.298.344.2.491.448.491.845 0 .448-.196.746-.638.994-.442.249-.933.348-1.572.348H.59c0-.05-.098-.05-.196-.05zm1.179-2.236v1.889h.294c.982 0 1.474-.348 1.474-.995 0-.298-.099-.546-.344-.695a1.731 1.731 0 0 0-.933-.249l-.491.05z"/><path id="o" d="M2.898 4.026h.343c.246 0 .393-.05.393-.199.05-.1.05-.497.05-1.193V.348c-.197 0-.443-.05-.786-.05H2.21c-.246 0-.491 0-.737.05v3.429c0 .1.05.15.099.2.049.049.147.049.343.049h.344v.248c-.491 0-.884-.05-1.228-.05-.294 0-.638 0-1.031.05v-.248h.344c.245 0 .344-.05.393-.15.049-.099.049-.645.049-1.64 0-1.043 0-1.64-.05-1.789C.689.347.59.25.345.25H0V0c.393 0 .786.05 1.277.05h2.848c.295 0 .688 0 1.179-.05v.249h-.295c-.294 0-.393.099-.442.248v3.38c0 .05.05.1.148.1.098.049.147.049.294.049h.295v.248c-.491 0-.884-.05-1.228-.05-.294 0-.638 0-1.031.05v-.248h-.147z"/><path id="p" d="M.393 1.193V.596L.884.298C1.13.15 1.277.1 1.474.05 1.62 0 1.816 0 2.013 0c.392 0 .736.1.982.298.245.199.393.448.442.696.049.199.049.746.049 1.64 0 .796 0 1.243.049 1.342.05.1.098.15.246.15h.343v.298c-.343 0-.589-.05-.736-.05-.148 0-.393 0-.688.05v-.796l-.933.696c-.098.05-.147.1-.246.15-.098.049-.196.049-.343.049-.393 0-.688-.1-.884-.298C.098 4.026 0 3.777 0 3.43c0-.299.05-.597.196-.796.148-.248.344-.397.639-.497.245-.1.884-.248 1.866-.447 0-.398-.098-.696-.245-.845-.197-.249-.492-.348-.884-.348-.148 0-.295 0-.393.05-.148.05-.246.1-.344.149-.098.199-.147.447-.246.646l-.196-.15zm2.357.745c-.835.2-1.375.348-1.571.497-.246.15-.344.398-.344.746 0 .199.049.398.196.547a.628.628 0 0 0 .491.199c.246 0 .442-.05.639-.2.196-.148.393-.297.59-.546V1.938z"/><path id="q" d="M4.027 1.74c0-.746 0-1.193-.049-1.293 0-.149-.147-.198-.393-.198h-.344V0c.393 0 .737.05 1.032.05.343 0 .736 0 1.227-.05v.249h-.294c-.246 0-.393.099-.442.248v3.33c0 .05.049.1.098.15.05.049.147.049.295.049h.294v.248c-.49 0-.884-.05-1.227-.05-.295 0-.639 0-1.032.05v-.248h.344c.246 0 .344-.05.393-.15.049-.099.049-.347.049-.645V2.137H1.522V3.58c0 .198 0 .298.05.348 0 .05.049.099.147.099.098.05.147.05.245.05h.295v.248c-.491 0-.884-.05-1.228-.05-.294 0-.638 0-1.031.05v-.248h.344c.245 0 .344-.05.393-.15.049-.099.049-.646.049-1.64 0-1.043 0-1.64-.05-1.789C.689.397.59.298.345.298H0V.05C.393.05.737.1 1.031.1c.344 0 .737 0 1.228-.05v.248h-.196c-.099 0-.197 0-.246.05-.098.05-.147.1-.147.149v1.342c.393.05.933.05 1.522.05.344-.1.639-.15.835-.15z"/><path id="r" d="M3.438 3.777l.098.1-.196.298c-.197.1-.393.199-.639.249-.196.05-.442.099-.638.099-.442 0-.835-.1-1.13-.249a1.454 1.454 0 0 1-.687-.745A2.618 2.618 0 0 1 0 2.386c0-.398.05-.746.196-1.044.148-.298.295-.497.54-.696.246-.149.54-.348.885-.497.245-.1.54-.149.835-.149.245 0 .442 0 .589.05.147.05.344.1.54.199-.098.397-.098.795-.098 1.192h-.295v-.248c0-.199-.049-.348-.098-.398-.05-.1-.196-.149-.393-.248-.196-.1-.393-.1-.638-.1-.393 0-.737.15-.933.398-.197.248-.344.646-.344 1.093 0 .647.147 1.144.49 1.541.296.348.688.497 1.13.497.197 0 .344 0 .54-.05.148 0 .344-.099.492-.149z"/><path id="s" d="M5.5.05v.248h-.294c-.246 0-.393.1-.442.249v3.33c0 .05.049.1.098.149.05.05.147.05.295.05h.294v.248c-.49 0-.884-.05-1.227-.05-.295 0-.639 0-1.032.05v-.248h.344c.196 0 .344-.05.393-.1.049-.1.049-.348.049-.745V1.243c0-.299 0-.547.05-.696-.1.149-.197.348-.345.447-.147.199-.294.398-.393.547l-.982 1.54c-.393.647-.736 1.044-.933 1.293-.098 0-.344.05-.687.1.049-.697.049-1.343.049-1.94 0-1.242 0-1.938-.05-2.087C.639.347.54.25.296.25H0V0c.393 0 .737.05 1.031.05.344 0 .737 0 1.228-.05v.249h-.295c-.098 0-.196 0-.245.05-.098.049-.147.099-.147.148v2.684c0 .2 0 .348-.05.497.099-.1.393-.497.835-1.143l.639-.994c.098-.199.442-.696.933-1.491.245 0 .442.05.638.05.05.05.393.05.933 0z"/><path id="t" d="M0 2.237c0-.398.098-.796.295-1.144C.49.746.737.497 1.08.298A2.311 2.311 0 0 1 2.26 0c.638 0 1.129.199 1.522.596.392.398.589.895.589 1.541 0 .746-.246 1.342-.737 1.79-.442.397-.982.596-1.62.596-.59 0-1.08-.199-1.474-.596C.147 3.479 0 2.932 0 2.237zm.835-.348c0 .646.147 1.143.393 1.59a1.18 1.18 0 0 0 1.08.646c.344 0 .639-.149.884-.397.246-.298.344-.696.344-1.293 0-.447-.05-.845-.196-1.192C3.192.895 3.045.646 2.8.497a1.197 1.197 0 0 0-.737-.248.979.979 0 0 0-.639.198c-.196.1-.344.299-.442.497a3.415 3.415 0 0 0-.147.945z"/><path id="u" d="M4.027 1.74c0-.746 0-1.193-.049-1.293 0-.149-.147-.198-.393-.198h-.344V0c.393 0 .737.05 1.032.05.343 0 .736 0 1.227-.05v.249h-.294c-.246 0-.393.099-.442.248v3.33c0 .05.049.1.098.15.05.049.147.049.295.049h.294v.248c-.49 0-.884-.05-1.227-.05-.295 0-.639 0-1.032.05v-.248h.344c.246 0 .344-.05.393-.15.049-.099.049-.347.049-.645V2.137H1.522V3.58c0 .198 0 .298.05.348 0 .05.049.099.147.099.098.05.147.05.245.05h.295v.248c-.491 0-.884-.05-1.228-.05-.294 0-.638 0-1.031.05v-.248h.344c.245 0 .344-.05.393-.15.049-.099.049-.646.049-1.64 0-1.043 0-1.64-.05-1.789C.689.397.59.298.345.298H.049V.05C.442.05.786.1 1.08.1c.344 0 .737 0 1.228-.05v.248h-.294c-.099 0-.197 0-.246.05-.098.05-.147.1-.147.149v1.342c.393.05.933.05 1.522.05.393-.1.688-.15.884-.15z"/><path id="v" d="M.393 1.193V.596L.884.298C1.13.15 1.277.1 1.474.05 1.62 0 1.816 0 2.013 0c.392 0 .736.1.982.298.245.199.393.448.442.696.049.199.049.746.049 1.64 0 .796 0 1.243.049 1.342.05.1.098.15.246.15h.343v.298c-.343 0-.589-.05-.736-.05-.148 0-.393 0-.688.05v-.796l-.933.696c-.098.05-.147.1-.246.15-.098.049-.196.049-.343.049-.393 0-.688-.1-.884-.298C.098 4.026 0 3.777 0 3.43c0-.299.05-.597.196-.796.148-.248.344-.397.639-.497.245-.1.884-.248 1.866-.447 0-.398-.098-.696-.245-.845-.197-.249-.492-.348-.884-.348-.148 0-.295 0-.393.05-.148.05-.246.1-.344.149-.098.199-.147.447-.246.646l-.196-.15zm2.357.745c-.835.2-1.375.348-1.571.497-.246.15-.344.398-.344.746 0 .199.049.398.196.547a.628.628 0 0 0 .491.199c.246 0 .442-.05.639-.2.196-.148.393-.297.59-.546V1.938z"/><path id="w" d="M.344 1.292H.049V.895A8.15 8.15 0 0 0 0 0c.59.05.982.05 1.13.05h1.915c.245 0 .59 0 1.13-.05-.05.497-.05.795-.05.895v.397h-.294C3.78.795 3.732.497 3.683.447c-.049-.05-.49-.05-1.178-.05 0 .2-.05.349-.05.547v2.933c0 .05.05.1.099.149.049.05.147.05.294.05h.295v.248c-.491 0-.884-.05-1.228-.05-.294 0-.638 0-1.031.05v-.248h.344c.196 0 .344-.05.393-.1.049-.1.098-.298.098-.696V2.137c0-.795 0-1.391-.05-1.74h-.245c-.54 0-.884 0-.933.05-.098.05-.147.299-.147.845z"/><path id="x" d="M0 2.237c0-.398.098-.796.295-1.144C.49.746.737.497 1.08.298A2.311 2.311 0 0 1 2.26 0c.638 0 1.129.199 1.522.596.392.398.589.895.589 1.541 0 .746-.246 1.342-.737 1.79-.442.397-.982.596-1.62.596-.59 0-1.08-.199-1.474-.596C.196 3.479 0 2.932 0 2.237zm.835-.348c0 .646.147 1.143.393 1.59a1.18 1.18 0 0 0 1.08.646c.344 0 .639-.149.884-.397.246-.298.344-.696.344-1.293 0-.447-.05-.845-.196-1.192C3.192.895 3.045.646 2.8.497a1.197 1.197 0 0 0-.737-.248.979.979 0 0 0-.639.198c-.196.1-.344.299-.442.497a3.415 3.415 0 0 0-.147.945z"/><path id="y" d="M0 .249V0c.196 0 .344.05.491.05L2.21 0c.491 0 .884.05 1.179.199.294.149.442.348.442.646 0 .497-.442.845-1.326 1.044 1.08.05 1.571.397 1.571 1.044 0 .447-.196.745-.638.994-.442.248-.933.347-1.523.347H.737c-.197 0-.442 0-.639.05v-.199l.197-.05c.147-.049.196-.099.245-.248.05-.1.05-.596.05-1.54 0-1.094 0-1.69-.05-1.79C.491.397.393.298.147.298H0v-.05zm1.424.099c-.049.248-.049.547-.049.994v.497h.344c.393 0 .687-.05.933-.199.196-.149.344-.348.344-.596 0-.497-.344-.746-1.032-.746-.147 0-.294 0-.54.05zm-.049 3.678c.098 0 .246.05.344.05.442 0 .786-.1 1.031-.249.295-.149.393-.397.393-.745 0-.249-.049-.398-.147-.547-.098-.15-.295-.249-.54-.298-.246-.1-.492-.1-.786-.1h-.344v1.094c.05.447.05.696.05.795z"/><path id="z" d="M2.898 4.026h.343c.246 0 .393-.05.393-.199.05-.1.05-.497.05-1.193V.348c-.197 0-.443-.05-.786-.05H2.21c-.246 0-.491 0-.737.05v3.429c0 .1.05.15.099.2.049.049.147.049.343.049h.344v.248c-.491 0-.884-.05-1.228-.05-.294 0-.638 0-1.031.05v-.248h.344c.245 0 .344-.05.393-.15.049-.099.049-.645.049-1.64 0-1.043 0-1.64-.05-1.789C.689.347.59.25.345.25H0V0c.393 0 .786.05 1.277.05h2.848c.295 0 .688 0 1.179-.05v.249h-.295c-.294 0-.393.099-.442.248v3.38c0 .05.05.1.148.1.098.049.147.049.294.049h.295v.248c-.491 0-.884-.05-1.228-.05-.294 0-.638 0-1.031.05v-.248h-.147z"/><path id="A" d="M0 2.237c0-.398.098-.796.295-1.144C.49.746.737.497 1.08.298A2.311 2.311 0 0 1 2.26 0c.638 0 1.129.199 1.522.596.392.398.589.895.589 1.541 0 .746-.246 1.342-.737 1.79-.442.397-.982.596-1.62.596-.59 0-1.08-.199-1.474-.596C.196 3.479 0 2.932 0 2.237zm.835-.348c0 .646.147 1.143.393 1.59a1.18 1.18 0 0 0 1.08.646c.344 0 .639-.149.884-.397.246-.298.344-.696.344-1.293 0-.447-.05-.845-.196-1.192C3.192.895 3.045.646 2.8.497a1.197 1.197 0 0 0-.737-.248.979.979 0 0 0-.639.198c-.196.1-.344.299-.442.497-.049.348-.147.647-.147.945z"/><path id="B" d="M.295 6.76l.196-.696H.59c.099.1.148.149.246.199.098.05.147.05.245.05.197 0 .344-.1.492-.25.147-.198.392-.695.687-1.54-.147-.348-.393-1.044-.786-1.988L1.031 1.49.688.696C.589.398.442.298.196.298H0V.05C.295.05.59.1.835.1c.196 0 .638 0 1.277-.05v.248h-.197c-.098 0-.196 0-.245.05-.05.05-.098.1-.098.149 0 .05.049.15.098.298.294.845.638 1.74 1.08 2.684A46.68 46.68 0 0 0 3.782.944c.098-.248.147-.397.147-.447 0-.1-.098-.15-.295-.199L3.29.248V0c.344 0 .688.05.934.05.245 0 .54 0 .785-.05v.249h-.147c-.05 0-.147 0-.196.05-.05.049-.148.099-.197.148-.098.15-.393.746-.835 1.79-.147.298-.442 1.043-.982 2.286-.442 1.044-.688 1.64-.786 1.74a.97.97 0 0 1-.442.447c-.196.1-.393.149-.59.149-.097 0-.196 0-.245-.05-.098 0-.196 0-.294-.05z"/><path id="C" d="M.05.398L.883 0c.196.1.344.199.491.348.197.248.54.696.933 1.441A48.5 48.5 0 0 0 3.486.099c.098 0 .196.05.295.05.049 0 .196 0 .392-.05v.249a.554.554 0 0 0-.392.149c-.148.15-.59.646-1.277 1.54.393.597.736 1.094 1.031 1.442.196.249.344.398.442.448.05.05.196.05.344.05v.248a5.93 5.93 0 0 0-.884.248 2.77 2.77 0 0 1-.393-.348c-.05-.099-.393-.596-.982-1.49-.295.347-.491.645-.639.844a13.67 13.67 0 0 0-.59.895c-.146 0-.245-.05-.343-.05-.098 0-.245 0-.442.05v-.298c.147 0 .246 0 .295-.05l.442-.447c.344-.398.687-.796 1.031-1.243C1.277 1.491.884.994.737.845.589.695.393.646.197.646H0V.398h.05z"/><path id="D" d="M5.108 5.567h-.344v-.199c0-.249 0-.547-.05-.944-.294-.15-.785-.2-1.424-.2H2.26c-.787 0-1.376.05-1.67.15L.294 5.567H0c.05-.398.098-.945.147-1.541.442-.15.737-.398.884-.845.148-.398.246-1.143.246-2.187 0-.298 0-.497-.05-.596-.048-.1-.147-.15-.392-.15H.49V0c.442 0 .835.05 1.13.05h2.062c.246 0 .688 0 1.326-.05v.249h-.343c-.246 0-.393.099-.442.248v3.28c0 .1.049.15.147.2.049.049.344.049.835.049 0 .248-.098.746-.098 1.54zM3.536.298c-.147 0-.54-.05-1.179-.05l-.638.05v.348c0 .795 0 1.392-.05 1.79a2.935 2.935 0 0 1-.294.994c-.147.248-.295.447-.491.596h2.652c.05-.447.05-1.094.05-1.988V.547l-.05-.249z"/><path id="E" d="M.295 6.76l.196-.696H.59c.099.1.148.149.246.199.098.05.147.05.245.05.197 0 .344-.1.492-.25.147-.198.392-.695.687-1.54-.147-.348-.393-1.044-.786-1.988L1.031 1.49.688.696C.589.398.442.298.196.298H0V.05C.295.05.59.1.835.1c.196 0 .638 0 1.277-.05v.248h-.344c-.098 0-.196 0-.246.05-.049.05-.098.1-.098.149 0 .05.05.15.098.298.295.845.639 1.74 1.08 2.684A46.59 46.59 0 0 0 3.635.944c.098-.248.148-.397.148-.447 0-.1-.099-.15-.295-.199l-.344-.05V0c.344 0 .688.05.933.05.246 0 .54 0 .786-.05v.249h-.147c-.05 0-.148 0-.197.05-.049.049-.147.099-.196.148-.098.15-.393.746-.835 1.79-.147.298-.442 1.043-.982 2.286-.442 1.044-.688 1.64-.786 1.74a.97.97 0 0 1-.442.447 1.29 1.29 0 0 1-.59.149c-.098 0-.196 0-.245-.05.05 0-.05 0-.147-.05z"/><path id="F" d="M.147 4.125L0 3.777l.098-.05c.54.349 1.032.498 1.474.498.343 0 .589-.1.785-.249.197-.199.246-.397.246-.745s-.098-.547-.295-.746c-.196-.149-.54-.248-1.031-.248H1.03v-.299h.148c.785 0 1.178-.298 1.178-.845 0-.248-.098-.397-.245-.546-.148-.15-.393-.2-.639-.2-.638 0-.933.349-.982.995H.246V.348C.638.099 1.08 0 1.62 0c.49 0 .884.1 1.13.249.294.198.392.397.392.695 0 .249-.098.448-.344.647a1.79 1.79 0 0 1-.933.397c1.032 0 1.572.348 1.572 1.044 0 .398-.148.745-.491.994-.344.248-.737.398-1.326.398-.54.099-1.08-.05-1.474-.299z"/><path id="G" d="M.393 1.193V.596L.884.298C1.13.15 1.277.1 1.474.05 1.62 0 1.816 0 2.013 0c.392 0 .736.1.982.298.245.199.393.448.442.696.049.199.049.746.049 1.64 0 .796 0 1.243.049 1.342.05.1.098.15.246.15h.343v.298c-.343 0-.589-.05-.736-.05-.148 0-.393 0-.688.05v-.796l-.933.696c-.098.05-.147.1-.246.15-.098.049-.196.049-.343.049-.393 0-.688-.1-.884-.298C.098 4.026 0 3.777 0 3.43c0-.299.05-.597.196-.796.148-.248.344-.397.639-.497.245-.1.884-.248 1.866-.447 0-.398-.098-.696-.245-.845-.197-.249-.492-.348-.884-.348-.148 0-.295 0-.393.05-.148.05-.246.1-.344.149-.098.199-.147.447-.246.646l-.196-.15zm2.357.745c-.835.2-1.375.348-1.571.497-.246.15-.344.398-.344.746 0 .199.049.398.196.547a.628.628 0 0 0 .491.199c.246 0 .442-.05.639-.2.196-.148.393-.297.59-.546V1.938z"/><path id="H" d="M2.898 4.076h.343c.246 0 .393-.05.393-.2.05-.099.05-.496.05-1.192V.348c-.197 0-.443-.05-.786-.05H2.21c-.246 0-.491 0-.737.05v3.429c0 .1.05.15.099.2.049.049.147.049.343.049h.344v.248c-.491 0-.884-.05-1.228-.05-.294 0-.638 0-1.031.05v-.248h.344c.245 0 .344-.05.393-.15.049-.099.049-.645.049-1.64 0-1.043 0-1.64-.05-1.789C.689.347.59.25.345.25H0V0c.393 0 .786.05 1.277.05h2.848c.295 0 .688 0 1.179-.05v.249h-.295c-.294 0-.393.099-.442.248v3.38c0 .05.05.1.148.1.098.049.147.049.294.049h.295v.248c-.491 0-.884-.05-1.228-.05-.294 0-.638 0-1.031.05v-.198h-.147z"/><path id="I" d="M0 2.237c0-.398.098-.796.295-1.144C.49.746.737.497 1.08.298A2.311 2.311 0 0 1 2.26 0c.638 0 1.129.199 1.522.596.392.398.589.895.589 1.541 0 .746-.246 1.342-.737 1.79-.442.397-.982.596-1.62.596-.59 0-1.08-.199-1.474-.596C.147 3.479 0 2.932 0 2.237zm.835-.299c0 .647.147 1.144.393 1.59a1.18 1.18 0 0 0 1.08.647c.344 0 .639-.149.884-.398.246-.298.344-.695.344-1.292 0-.447-.05-.845-.196-1.193C3.192.944 3.045.696 2.8.547a1.197 1.197 0 0 0-.737-.249.979.979 0 0 0-.639.199c-.196.1-.344.298-.442.497a2.926 2.926 0 0 0-.147.944z"/><path id="J" d="M2.21 4.324v-.248h.246c.245 0 .392-.05.442-.2.049-.099.049-.546.049-1.242v-.646h-.148c-.294.298-.785.944-1.473 1.889-.147.199-.246.348-.295.397-.196 0-.343-.05-.49-.05-.05 0-.246 0-.541.05v-.248c.147 0 .295-.1.442-.249.147-.149.442-.497.835-.994.442-.546.737-.944.933-1.143C1.572 1.044 1.13.646.933.497.688.347.54.249.393.249H.246V0h.834l.59.596c.442.497.835.895 1.228 1.243h.098v-.596c0-.497 0-.746-.05-.845-.048-.1-.147-.15-.392-.15H2.21V0c.393 0 .737.05 1.13.05.392 0 .736 0 1.13-.05v.249h-.345c-.196 0-.343.05-.393.149-.049.099-.049.397-.049.845v.596h.099A9.46 9.46 0 0 0 5.009.596C5.304.298 5.5.05 5.6 0h.835v.249h-.148c-.098 0-.294.099-.54.248-.246.199-.688.547-1.326 1.143.246.298.54.646.933 1.143.442.547.688.895.835 1.044.147.15.295.199.442.199v.248h-.54c-.098 0-.295 0-.491.05-.099-.1-.197-.248-.344-.447-.737-1.044-1.228-1.69-1.473-1.889h-.148v.646c0 .696 0 1.094.05 1.243.048.149.147.199.441.199h.246v.248h-.246c-.49 0-.785-.05-.835-.05-.343 0-.736.05-1.08.05z"/><path id="K" d="M5.55.05v.248h-.295c-.246 0-.393.1-.442.249v3.33c0 .05.049.1.098.149.05.05.147.05.295.05H5.5v.248c-.49 0-.884-.05-1.227-.05-.295 0-.639 0-1.032.05v-.248h.344c.197 0 .344-.05.393-.1.05-.1.05-.348.05-.745V1.243c0-.299 0-.547.048-.696-.098.149-.196.348-.344.447-.147.199-.294.398-.392.547l-.983 1.54c-.393.647-.736 1.044-.933 1.293-.098 0-.344.05-.687.1.049-.697.049-1.343.049-1.94 0-1.242 0-1.938-.05-2.087C.689.347.59.25.345.25H0V0c.393 0 .737.05 1.031.05.344 0 .737 0 1.228-.05v.249h-.295c-.098 0-.196 0-.245.05-.098.049-.147.099-.147.148v2.684c0 .2 0 .348-.05.497.099-.1.393-.497.835-1.143l.639-.994c.098-.199.442-.696.933-1.491.245 0 .442.05.638.05.099.05.442.05.983 0z"/><path id="L" d="M5.01 0v.249h-.295c-.246 0-.393.099-.442.248v3.38c0 .05.049.1.098.149.049.05.147.05.295.05h.294v.248c-.49 0-.884-.05-1.228-.05-.294 0-.638 0-1.03.05v-.248h.343c.196 0 .344-.05.393-.15.049-.099.049-.496.049-1.192V.348c-.246-.05-.59-.05-1.08-.05-.197 0-.443 0-.737.05 0 1.342-.05 2.237-.098 2.684-.099.447-.246.795-.492 1.044-.245.248-.49.348-.736.348-.098 0-.197 0-.344-.05v-.696l.098-.05c.098.15.295.249.442.249.295 0 .491-.15.59-.497.098-.348.196-1.094.196-2.237 0-.348 0-.547-.05-.646-.048-.1-.146-.15-.392-.15H.54V.1c.442 0 .835.05 1.13.05h2.112c.294-.1.687-.1 1.227-.149z"/><path id="M" d="M.393 4.274v-.198c.196-.1.344-.15.344-.249.049-.1.049-.646.049-1.59 0-1.094 0-1.69-.05-1.79C.689.347.59.25.345.25H0V0c.393 0 .737.05 1.031.05.344 0 .737 0 1.228-.05v.249h-.295c-.245 0-.392.099-.442.248 0 .15-.049.547-.049 1.143v.199h.639c.638 0 1.08.1 1.424.298.344.2.491.448.491.845 0 .448-.196.746-.638.994-.442.249-.933.348-1.572.348H.59c0-.05-.147-.05-.196-.05zm1.13-2.236v1.889c.147 0 .245.05.343.05.933 0 1.424-.349 1.424-.995 0-.298-.098-.547-.343-.696a1.731 1.731 0 0 0-.933-.248h-.492zm2.65-1.79V0c.393 0 .737.05 1.032.05.344 0 .736 0 1.228-.05v.249h-.295c-.246 0-.393.099-.442.248v2.485c0 .547 0 .845.049.895 0 .05.05.1.147.149.099.05.148.05.295.05h.295v.248c-.491 0-.884-.05-1.228-.05-.295 0-.639 0-1.031.05v-.248h.343c.246 0 .393-.05.393-.2.05-.099.05-.695.05-1.739 0-.994 0-1.54-.05-1.69-.049-.1-.147-.198-.393-.198h-.393z"/><path id="N" d="M6.09 0v.249h-.295c-.245 0-.393.099-.442.248v3.38c0 .05.05.1.147.149.099.05.148.05.295.05h.295v.248c-.491 0-.884-.05-1.228-.05-.295 0-.638 0-1.031.05v-.248h.294c.197 0 .344-.05.393-.15.05-.099.05-.447.05-1.093V.746l-.786 1.64c-.295.646-.59 1.292-.835 1.988h-.295c-.098-.298-.246-.646-.393-1.044l-.295-.646L1.13.646v3.231c0 .05.049.1.098.1.049.049.147.049.294.049h.295v.248H.835c-.098 0-.393 0-.835.05v-.248h.344c.245 0 .344-.05.393-.15.049-.099.049-.646.049-1.64 0-1.093 0-1.64-.05-1.789C.689.397.59.298.345.298H0V.05h1.67c.245.696.49 1.292.736 1.839l.688 1.54.786-1.69c.294-.646.49-1.043.54-1.242L4.616.05h.54S5.5.05 6.09 0z"/><path id="O" d="M5.55.05v.248h-.295c-.246 0-.393.1-.442.249v3.33c0 .05.049.1.098.149.05.05.147.05.295.05H5.5v.248c-.49 0-.884-.05-1.227-.05-.295 0-.639 0-1.032.05v-.248h.344c.197 0 .344-.05.393-.1.05-.1.05-.348.05-.745V1.243c0-.299 0-.547.048-.696-.098.149-.196.348-.344.447-.147.199-.294.398-.392.547l-.983 1.54c-.393.647-.736 1.044-.933 1.293-.098 0-.344.05-.687.1.049-.697.049-1.343.049-1.94 0-1.242 0-1.938-.05-2.087C.689.347.59.25.345.25H0V0c.393 0 .737.05 1.031.05.344 0 .737 0 1.228-.05v.249h-.295c-.098 0-.196 0-.245.05-.098.049-.147.099-.147.148v2.684c0 .2 0 .348-.05.497.099-.1.393-.497.835-1.143l.639-.994c.098-.199.442-.696.933-1.491.245 0 .442.05.638.05.099.05.393.05.983 0z"/><path id="P" d="M5.01 0v.249h-.295c-.246 0-.393.099-.442.248v3.38c0 .05.049.1.098.149.049.05.147.05.295.05h.294v.248c-.49 0-.884-.05-1.228-.05-.294 0-.638 0-1.03.05v-.248h.343c.196 0 .344-.05.393-.15.049-.099.049-.496.049-1.192V.348c-.246-.05-.59-.05-1.08-.05-.197 0-.443 0-.737.05 0 1.342-.05 2.237-.098 2.684-.099.447-.246.795-.492 1.044-.245.248-.49.348-.736.348-.098 0-.197 0-.344-.05v-.696l.098-.05c.098.15.295.249.442.249.295 0 .491-.15.59-.497.098-.348.196-1.094.196-2.237 0-.348 0-.547-.05-.646-.048-.1-.146-.15-.392-.15H.54V.1c.442 0 .835.05 1.13.05h2.112c.294-.1.736-.1 1.227-.149z"/><path id="Q" d="M2.505 2.137h-.983V3.58c0 .198 0 .298.05.348 0 .05.049.05.147.099.098.05.147.05.245.05h.295v.248c-.491 0-.884-.05-1.228-.05-.294 0-.638 0-1.031.05v-.248h.344c.245 0 .344-.05.393-.15.049-.099.049-.646.049-1.64 0-1.043 0-1.64-.05-1.789C.689.397.59.298.345.298H0V.05C.393.05.737.1 1.031.1c.344 0 .737 0 1.228-.05v.248h-.295c-.098 0-.196 0-.245.05-.098.05-.147.1-.147.149v1.342c.245 0 .442.05.54.05.147 0 .294 0 .442-.05.098-.547.344-.994.736-1.342C3.683.149 4.224 0 4.813 0c.59 0 1.08.199 1.473.547.393.348.59.894.59 1.54 0 .746-.246 1.293-.688 1.74-.442.447-1.031.646-1.67.646-.59 0-1.08-.199-1.473-.596-.393-.497-.54-1.044-.54-1.74zM4.567.25c-.393 0-.687.149-.884.397-.245.249-.343.696-.343 1.243 0 .546.147 1.093.392 1.54.246.448.639.696 1.08.696.345 0 .64-.149.885-.447.245-.298.344-.696.344-1.243 0-.646-.148-1.143-.393-1.54A1.18 1.18 0 0 0 4.568.25z"/><path id="R" d="M5.108 5.567h-.344v-.199c0-.249 0-.547-.05-.944-.294-.15-.785-.2-1.424-.2H2.26c-.787 0-1.376.05-1.67.15L.294 5.567H0c.05-.398.098-.945.147-1.541.442-.15.737-.398.884-.845.148-.398.246-1.143.246-2.187 0-.298 0-.497-.05-.596-.048-.1-.147-.15-.392-.15H.49V0c.442 0 .835.05 1.13.05h2.062c.246 0 .688 0 1.326-.05v.249h-.343c-.246 0-.393.099-.442.248v3.28c0 .1.049.15.147.2.049.049.344.049.835.049 0 .248-.098.746-.098 1.54zM3.536.298c-.147 0-.54-.05-1.179-.05l-.638.05v.348c0 .795 0 1.392-.05 1.79a2.935 2.935 0 0 1-.294.994c-.147.248-.295.447-.491.596h2.652c.05-.447.05-1.093.05-1.988V.547l-.05-.249z"/><path id="S" d="M.393 4.274v-.198c.196-.1.344-.2.344-.249.049-.1.049-.646.049-1.59 0-1.044 0-1.64-.05-1.79C.689.347.59.25.345.25H0V0c.393 0 .737.05 1.031.05.344 0 .737 0 1.228-.05v.249h-.295c-.245 0-.392.099-.442.248 0 .15-.049.547-.049 1.143v.199h.639c.638 0 1.08.1 1.424.298.344.2.491.448.491.845 0 .448-.196.746-.638.994-.442.249-.933.348-1.572.348H.59c0-.05-.098-.05-.196-.05zm1.179-2.236v1.889h.294c.982 0 1.474-.348 1.474-.995 0-.298-.099-.546-.344-.695a1.731 1.731 0 0 0-.933-.249l-.491.05z"/><path id="T" d="M6.09 0v.249h-.295c-.245 0-.393.099-.442.248v3.38c0 .05.05.1.147.149.099.05.148.05.295.05h.295v.248c-.491 0-.884-.05-1.228-.05-.295 0-.638 0-1.031.05v-.248h.294c.197 0 .344-.05.393-.15.05-.099.05-.447.05-1.093V.746l-.786 1.64c-.295.646-.59 1.292-.835 1.988h-.295c-.098-.298-.246-.646-.393-1.044l-.295-.646L1.13.646v3.231c0 .05.049.1.098.1.049.049.147.049.294.049h.295v.248H.835c-.098 0-.393 0-.835.05v-.248h.344c.245 0 .344-.05.393-.15.049-.099.049-.646.049-1.64 0-1.093 0-1.64-.05-1.789C.689.397.59.298.345.298H0V.05h1.67c.245.696.49 1.292.736 1.839l.688 1.54.786-1.69c.294-.646.49-1.043.54-1.242L4.616.05h.54S5.5.05 6.09 0z"/><path id="U" d="M5.5.05v.248h-.294c-.246 0-.393.1-.442.249v3.33c0 .05.049.1.098.149.05.05.147.05.295.05h.294v.248c-.49 0-.884-.05-1.227-.05-.295 0-.639 0-1.032.05v-.248h.344c.196 0 .344-.05.393-.1.049-.1.049-.348.049-.745V1.243c0-.299 0-.547.05-.696-.1.149-.197.348-.345.447-.147.199-.294.398-.393.547l-.982 1.54c-.393.647-.736 1.044-.933 1.293-.098 0-.344.05-.687.1.049-.697.049-1.343.049-1.94 0-1.242 0-1.938-.05-2.087C.639.347.54.25.296.25H0V0c.393 0 .737.05 1.031.05.344 0 .737 0 1.228-.05v.249h-.295c-.098 0-.196 0-.245.05-.098.049-.147.099-.147.148v2.684c0 .2 0 .348-.05.497.099-.1.393-.497.835-1.143l.639-.994c.098-.199.442-.696.933-1.491.245 0 .442.05.638.05.05.05.344.05.933 0z"/><path id="V" fill-rule="evenodd" d="M.927 40.731c.03.865.15 1.76.298 2.624.238 1.343.862 2.535 1.636 3.609.476.656.773 1.372.892 2.177.209 1.223.565 2.416 1.25 3.46a164.85 164.85 0 0 0 2.558 3.727c.595.865 1.457 1.462 2.35 1.998.654.388 1.19.895 1.547 1.581.149.268.297.537.476.805.505.775 1.1 1.521 2.023 1.85.832.297 1.516.804 2.141 1.4 1.071 1.045 2.29 1.82 3.719 2.267.803.239 1.636.388 2.41.716.98.388 1.873.865 2.825 1.312 1.666.746 3.361 1.133 5.176.835a5.068 5.068 0 0 1 2.32.209c.268.09.536.15.803.209 1.666.537 3.332.477 4.998-.09.446-.149.922-.208 1.398-.268.654-.06 1.339-.06 1.993-.06 1.19-.06 2.35-.238 3.42-.775.715-.358 1.399-.835 2.113-1.193.446-.239.952-.477 1.428-.567 1.1-.208 2.142-.507 3.153-1.014 1.22-.626 2.32-1.46 3.42-2.266 1.012-.716 2.053-1.461 2.886-2.386a30.736 30.736 0 0 1 2.618-2.594c.506-.448.952-.925 1.309-1.492.744-1.222 1.606-2.355 2.469-3.459.981-1.223 1.755-2.565 2.082-4.145a10.913 10.913 0 0 1 1.309-3.43c.952-1.7 1.398-3.549 1.25-5.517-.06-.835.03-1.64.208-2.416.267-1.133.535-2.236.535-3.43-.03-.387-.03-.804-.119-1.192-.149-.776-.387-1.491-.506-2.267-.148-.924-.178-1.878-.238-2.833-.148-2.117-.684-4.085-2.171-5.696-.327-.358-.476-.775-.506-1.252a7.91 7.91 0 0 0-1.338-3.997c-.804-1.222-1.666-2.415-2.5-3.638-.743-1.103-1.635-1.968-2.974-2.296-.446-.12-.744-.388-.982-.776-.208-.328-.386-.686-.565-1.014-.416-.775-.952-1.46-1.695-1.968a44.848 44.848 0 0 1-2.707-1.968c-1.19-.954-2.499-1.73-3.986-2.058-1.398-.328-2.737-.805-3.986-1.52-.982-.567-2.023-.955-3.154-1.074-.981-.12-1.933-.09-2.915-.15-.595-.03-1.22-.089-1.785-.238a10.21 10.21 0 0 0-5.83-.09C31.001.65 30.02.8 28.98.8c-.833 0-1.696.09-2.529.209-1.16.179-2.142.775-3.093 1.431-.744.507-1.577.895-2.5 1.044a9.283 9.283 0 0 0-4.223 1.76c-1.071.805-2.172 1.55-3.273 2.326-.535.387-.981.835-1.279 1.431-.178.388-.357.746-.505 1.133a2.142 2.142 0 0 1-1.339 1.342c-.238.09-.446.18-.684.299-1.13.507-1.993 1.282-2.41 2.475a4.361 4.361 0 0 1-1.07 1.64c-1.25 1.223-2.172 2.654-2.588 4.384-.328 1.402-.774 2.744-1.488 3.996-.654 1.133-1.1 2.386-1.22 3.728-.03.537-.089 1.074-.03 1.58.12 1.164-.088 2.297-.386 3.4-.387 1.402-.506 2.833-.149 4.265.476 1.044.685 2.237.714 3.49z"/><path id="X" fill-rule="evenodd" d="M69.91 34.409c-.03-.388-.03-.805-.119-1.193-.148-.776-.386-1.491-.505-2.267-.15-.924-.179-1.878-.238-2.833-.15-2.117-.684-4.085-2.172-5.696-.327-.358-.476-.775-.506-1.252a7.91 7.91 0 0 0-1.338-3.997c-.803-1.222-1.666-2.415-2.499-3.638-.744-1.103-1.636-1.968-2.975-2.296-.446-.12-.743-.388-.981-.776-.209-.328-.387-.686-.565-1.014-.417-.775-.952-1.46-1.696-1.968a44.912 44.912 0 0 1-2.707-1.968c-1.19-.954-2.469-1.73-3.956-2.058-1.398-.328-2.737-.805-3.986-1.52-.982-.567-2.023-.955-3.154-1.074-.981-.12-1.933-.09-2.915-.15-.595-.03-1.22-.089-1.785-.238a10.21 10.21 0 0 0-5.83-.09C31.001.65 30.02.8 28.98.8c-.833 0-1.696.09-2.529.209-1.16.179-2.142.775-3.093 1.431-.744.507-1.577.895-2.5 1.044a9.283 9.283 0 0 0-4.223 1.76c-1.071.805-2.172 1.55-3.273 2.326-.535.387-.981.835-1.279 1.431-.178.388-.357.746-.505 1.133a2.142 2.142 0 0 1-1.339 1.342c-.238.09-.446.18-.684.299-1.13.507-1.993 1.282-2.41 2.475a4.361 4.361 0 0 1-1.07 1.64c-1.25 1.223-2.172 2.654-2.588 4.384-.328 1.402-.774 2.744-1.488 3.996-.654 1.133-1.1 2.386-1.22 3.728-.03.537-.089 1.074-.03 1.58.12 1.164-.088 2.297-.386 3.4-.387 1.402-.506 2.833-.149 4.265.298 1.193.506 2.386.536 3.608.03.865.149 1.76.297 2.625.238 1.342.863 2.535 1.636 3.608.476.656.774 1.372.893 2.177.208 1.223.565 2.416 1.25 3.46a164.882 164.882 0 0 0 2.557 3.728c.595.864 1.458 1.46 2.35 1.998.655.387 1.19.894 1.547 1.58.149.269.298.537.476.805.506.776 1.1 1.521 2.023 1.85.833.298 1.517.805 2.142 1.401 1.07 1.044 2.29 1.82 3.718 2.267.803.238 1.636.387 2.41.715.981.388 1.874.865 2.826 1.313 1.665.745 3.361 1.133 5.175.835a5.07 5.07 0 0 1 2.32.208c.269.09.536.15.804.21 1.666.536 3.332.476 4.997-.09.447-.15.923-.21 1.398-.269.655-.06 1.34-.06 1.994-.06 1.19-.06 2.35-.238 3.42-.775.714-.358 1.398-.835 2.112-1.193.447-.238.952-.477 1.428-.566 1.101-.21 2.142-.507 3.154-1.014 1.22-.627 2.32-1.462 3.42-2.267 1.012-.716 2.053-1.461 2.886-2.386a30.707 30.707 0 0 1 2.618-2.594c.505-.447.951-.925 1.308-1.491.744-1.223 1.607-2.356 2.47-3.46.981-1.222 1.754-2.564 2.082-4.145a10.918 10.918 0 0 1 1.309-3.43c.951-1.7 1.398-3.548 1.249-5.517-.06-.835.03-1.64.208-2.415.387-1.253.684-2.356.684-3.55zm-4.254-10.527c.328.477.595.954.833 1.49.417.925.685 1.91.744 2.893.06 1.581-.506 2.953-1.577 4.086-1.1 1.163-2.498 1.55-4.045 1.342-.535-.06-1.07-.209-1.606-.298.446-1.014 1.13-1.58 2.171-1.7.625-.09 1.25-.268 1.755-.746.625-.596.863-1.371.893-2.177 0-.626-.09-1.252-.179-1.849-.149-.984-.03-1.938.298-2.892.119-.507.416-.567.713-.15zm-5.592 18.012c.417.835.803 1.67 1.19 2.476.03.06.06.149.09.208.148.328.326.388.594.15.417-.358.774-.746 1.13-1.104-.178.417-.535.775-.892 1.103-.119.09-.238.21-.357.299-.268.178-.416.149-.565-.15-.149-.298-.208-.596-.357-.894-.476-.984-.982-1.939-1.487-2.923-.12-.209-.208-.417-.298-.626-.178-.358-.089-.686.179-.954.297-.328.684-.537 1.1-.686.357-.12.595.06.833.298.149.149.268.298.357.477.476.835.952 1.7 1.428 2.535.238.388.208.745-.06 1.103-.267.328-.535.686-.862.984-.268.269-.446.21-.625-.089-.03-.06-.06-.09-.089-.149-.387-1.133-1.07-2.088-1.696-3.072-.208-.298-.357-.626-.535-.924-.03 0-.03.03-.06.03.328.626.685 1.252.982 1.908zm-1.904 9.484c.536-.12 1.042-.239 1.547-.388.12-.03.238-.15.357-.209 0 .21-.119.418-.446.507-.446.15-.893.239-1.369.328-.475.09-.505.06-.624-.417a264.6 264.6 0 0 0-1.011-4.652v-.09c-.06-.447-.06-.447.386-.626.595-.239 1.19-.477 1.844-.716.268 1.074.536 2.088.774 3.102.149.566.268 1.133.387 1.73.089.387 0 .596-.387.715-.506.15-1.012.239-1.547.358-.09.03-.178.03-.268.03.03.387.03.387.357.328zm-5.176 5.696c.595.12 1.19.238 1.785.328.12.03.268-.03.387-.03-.03.269-.208.358-.476.328a39.74 39.74 0 0 1-1.815-.328c-.238-.06-.297-.239-.267-.447.03-.477.119-.984.148-1.462.09-1.371.15-2.773.209-4.145.03-.417.03-.417.416-.388.476.06.952.06 1.428.09.208 0 .387.03.654.06 0 1.073.03 2.117 0 3.16-.03.776-.148 1.581-.267 2.357-.06.417-.238.536-.655.447-.595-.12-1.19-.239-1.814-.358-.03.239.06.358.267.388zm-2.23-7.575a4.745 4.745 0 0 1-1.369-1.074c-.833-1.014-.744-1.878.297-2.684.595-.447 1.25-.745 2.053-.954.119.746.238 1.431.327 2.147 0 .12-.148.269-.238.388-.06.09-.178.149-.297.238.416.269.892.418 1.368.508.982.178 1.993.089 2.975-.03.773-.09.625-.12.773.536.09.358.149.746.208 1.104-2.587.656-6.484-.18-7.823-2.386-.03 0-.06.03-.06.03.179.268.328.566.536.805.744.865 1.696 1.312 2.766 1.67 1.428.477 2.886.537 4.373.298.238-.03.268-.03.327.21-.386.059-.743.118-1.13.148-1.815.209-3.51-.09-5.087-.954zM33.321 63.963c.327.149.624.06.862-.239-.148.567-.654.746-1.13.418-.476-.328-.803-.776-1.011-1.312a2.536 2.536 0 0 1-.209-1.402c.09-1.55-.743-2.475-1.993-3.131-.386-.21-.833-.328-1.22-.507-.743-.328-1.219-1.193-1.13-2.058 1.666-.537 3.124-.209 4.433.895 1.517 1.312 2.35 3.012 2.528 5.01.03.447-.06.924-.178 1.371-.209.686-.714.835-1.25.388-.327-.268-.595-.626-.863-.924.179.626.536 1.193 1.16 1.49zm-13.803-3.937c-.387.06-.654-.119-.803-.447-.178-.418-.357-.835-.476-1.282-.09-.328.06-.537.417-.627 1.517-.328 3.034-.656 4.58-.924.625-.12.744-.03 1.012.537.119.238.178.507.297.745.09.209 0 .269-.178.328-1.041.269-2.053.567-3.094.805-.535.12-1.07.15-1.636.239-.476.06-.833-.15-1.011-.567-.06-.09-.09-.179-.149-.268-.03 0-.03.03-.06.06.179.298.298.626.536.894.119.15.357.239.535.269.922.06 1.815-.15 2.678-.358.832-.209 1.665-.447 2.528-.656.06.149-.06.209-.208.268-.863.239-1.696.537-2.558.716l-2.41.268zm1.041 2.565c.536.15.893.596 1.25.984.148.18.267.388.416.597-.327.178-.595.149-.863.06-.951-.24-1.814-.716-2.677-1.194-.267-.149-.535-.298-.863-.507.982-.09 1.875-.149 2.737.06zm-2.945-15.567c-.952-.388-1.903-.716-2.826-1.074-.684-.268-.773-.477-.654-1.193.03-.149.06-.298.149-.447.238-.597.505-.716 1.13-.537 1.368.447 2.707.924 4.075 1.282a8.004 8.004 0 0 0 2.231.239c1.339-.03 2.588-.447 3.748-1.103.744-.418 1.488-.895 2.202-1.343.297-.178.505-.178.803 0 .803.508 1.457 1.134 1.725 2.058 0 .03.03.06 0 .03-.981.358-1.963.656-2.915 1.044-.863.358-1.666.895-2.201 1.67-.327.477-.476 1.014-.476 1.61 0 .597.03 1.223.327 1.82-.208.06-.357.119-.506.149-.386.06-.803.119-1.19.09-.208 0-.416-.12-.595-.24-.208-.149-.356-.149-.446.09-.119.328-.238.656-.267.984-.06.954-.06 1.909-.06 2.833 0 .865.03.835-.773 1.074-.447.12-.922.209-1.398-.09.03.299.178.478.446.507.595.12 1.13-.09 1.785-.328-.09.15-.12.269-.209.299-.535.268-1.07.417-1.665.298-.238-.06-.357-.18-.447-.418-.416-1.431-.267-2.833.268-4.205a59.25 59.25 0 0 0 .773-2.087c.09-.239.12-.507.15-.746 0-.328-.18-.507-.506-.387-.357.119-.685.298-1.012.477-.387.208-.773.447-1.19.596-.416.15-.535.03-.505-.417l.089-1.074c.03-.328.119-.596.446-.716.09-.03.149-.149.298-.268-.268-.18-.536-.358-.804-.477zm-2.766 4.95c.565.239 1.19.239 1.785.15.06 0 .119-.03.208-.06-.03.298-.238.358-.446.358-.536-.03-1.1-.09-1.636-.15-.06 0-.15-.119-.179-.178-.03-.329-.09-.657-.06-.985.06-.835.12-1.64.239-2.445.089-.567.267-1.133.386-1.7.06-.209.179-.268.357-.209.506.18 1.041.358 1.547.567.149.06.208.149.208.328-.119 1.163-.208 2.356-.357 3.519-.06.507-.208.626-.713.626-.506 0-.982-.06-1.607-.119.12.15.179.268.268.298zm-5.741-3.161c.446.209.892.447 1.338.567a87.93 87.93 0 0 0 3.005.745c.208.06.446.03.684.06.03.209-.12.268-.268.268-.387-.03-.773-.06-1.16-.149a45.599 45.599 0 0 1-2.885-.805c-.357-.12-.655-.328-.982-.507-.297-.179-.446-.477-.446-.835 0-.537.089-1.074.297-1.58.12-.24.268-.329.536-.24l.981.359c1.071.387 2.172.805 3.243 1.222.03 0 .06.03.089.03.773.298.803.388.654 1.193-.06.269-.178.388-.446.358-.595-.06-1.22-.06-1.814-.179a27.852 27.852 0 0 1-2.559-.775c-.327-.12-.595-.328-.892-.507.09.328.297.596.625.775zm6.098-30.24c.565.09 1.16.15 1.785.209-.06.06-.12.179-.209.179-.624.12-1.249 0-1.844-.209-.149-.06-.327-.328-.357-.507-.09-.865-.119-1.73-.149-2.595 0-.536.03-1.073.06-1.61.03-.298.06-.596.149-.895.148-.477.535-.715.981-.805a1.81 1.81 0 0 1 1.19.03c.357.15.476.298.476.686-.03.507-.119 1.044-.178 1.55-.06.448-.09.925-.09 1.402-.03.686-.06 1.372-.06 2.058 0 .179-.088.268-.237.268-.684.06-1.368 0-2.023-.328.03.358.208.537.506.567zm2.766 1.312c.833.298 1.636.686 2.29 1.283.268.238.477.536.685.835.208.268.178.566-.03.775-.327.358-.625.716-1.04.954-.507.328-1.072.537-1.637.835.09.299.119.328.446.21.655-.27 1.31-.568 1.874-1.075.179-.149.298-.328.506-.447-.208.239-.387.537-.625.746-.565.507-1.25.835-1.963 1.103-.179.06-.298.03-.327-.149-.09-.566-.209-1.163-.238-1.73 0-.179.148-.387.267-.536.15-.21.15-.329-.089-.448-.476-.268-.981-.358-1.487-.358-.684 0-1.398 0-2.082.06-.952.09-1.28-.298-1.399-1.133-.118-.835.298-1.312 1.19-1.402 1.31-.209 2.5.06 3.66.477zm20.466-9.9c.417.834 1.1 1.282 1.904 1.64.297.119.595.238.863.357.565.239.981.627 1.22 1.193.118.298.089.418-.239.507-.684.209-1.368.209-2.082.03-1.368-.388-2.35-1.252-3.183-2.356-.327-.447-.595-.954-.922-1.491.535 1.312 1.279 2.416 2.35 3.25.684.537 1.428.925 2.29 1.044.625.09 1.25.03 1.874-.208 0 .268-.208.328-.416.387a3.926 3.926 0 0 1-2.41-.119c-1.308-.507-2.26-1.402-3.004-2.535-.684-1.044-1.16-2.207-1.22-3.46a6.45 6.45 0 0 1 .447-2.594c.148-.388.297-.417.624-.149.447.388.863.775 1.28 1.223.237.238.297.566.267.954 0 .775-.03 1.58.357 2.326zm1.577.536c.238.03.476-.06.684-.15l4.373-2.146c.03.03.03.06.06.09-.12.118-.239.268-.387.327-.655.328-1.31.597-1.934.925l-2.142 1.073c-.595.298-.922.269-1.309-.268-.208-.268-.327-.597-.476-.895-.119-.238-.06-.477.15-.656.178-.179.386-.358.624-.507.833-.477 1.636-.984 2.469-1.431.833-.448 1.457-.358 2.171.298.238.209.447.417.714.686-.357.179-.684.298-.981.477-1.071.537-2.172 1.044-3.213 1.58-.773.388-1.16.299-1.636-.447-.06-.09-.09-.179-.149-.268 0 .477.565 1.282.982 1.312zm6.128 2.147c.119.12.386.18.565.15.773-.09 1.576-.21 2.35-.358.892-.18 1.755-.418 2.617-.627-.03.209-.208.298-.416.328-.922.239-1.844.477-2.766.686-.566.12-1.16.18-1.726.269-.416.06-.773-.06-.952-.448-.178-.358-.386-.745-.476-1.133-.089-.358.09-.626.447-.746 1.398-.417 2.826-.835 4.313-.924.803-.06 1.487.567 1.547 1.342 0 .09-.149.238-.268.268-.506.15-1.011.328-1.517.448-.952.208-1.904.358-2.856.537-.595.119-1.07-.09-1.338-.657-.03-.06-.06-.09-.09-.149 0 0-.03 0-.03-.03-.03.03-.059.03-.089.06.209.358.417.716.685.984zm-4.7 7.844a2.13 2.13 0 0 1 1.07-.597c.328-.06.595 0 .833.268.328.358.625.716.923 1.074.476.597 1.01 1.103 1.665 1.461.03 0 .06.03.06.06.119.15.268.268.387.418-.179.119-.328.268-.506.328-.327.119-.684.149-.922.208-1.398-.09-2.529-.566-3.391-1.52-.179-.18-.298-.448-.387-.686-.09-.388 0-.746.268-1.014zm-1.28-1.581c-.386.238-.713.567-1.1.865.149-.18.267-.388.416-.537.774-.775 1.785-1.193 2.826-1.402 1.19-.238 2.41-.387 3.6-.596.386-.06.803-.15 1.19-.239.178-.06.356-.179.535-.268a.872.872 0 0 1-.714.596c-1.16.18-2.32.388-3.48.567-1.13.15-2.261.417-3.273 1.014zm6.128 1.849c-.595-.537-.952-1.253-1.279-1.968-.089-.18-.148-.388-.238-.567.03-.03.06-.03.06-.06l.178.18c.327.566.625 1.162.982 1.729.119.209.327.358.535.507.387.298.833.328 1.28.09a4.555 4.555 0 0 0 1.576-1.432c.09-.12.178-.268.268-.388-.476 1.014-1.16 1.82-2.231 2.237-.447.12-.833-.06-1.13-.328zm3.183-2.237c-.416.716-.981 1.312-1.725 1.73-.595.328-1.041.268-1.517-.209-.565-.537-.893-1.193-1.25-1.938.566-.12 1.101-.269 1.636-.299.209-.03.476.15.685.269.089.03.119.179.208.268.446-.686.625-1.342.625-2.028 0-.536-.06-1.103-.09-1.64 0-.238 0-.477.03-.716.03-.298.179-.507.446-.656a2.454 2.454 0 0 1 1.369-.328c.297.03.446.21.535.477.179.597.179 1.223.09 1.82-.15 1.163-.447 2.266-1.042 3.25zm-3.897-4.98c.09.239 0 .358-.178.477-.625.388-1.458.239-1.815-.388a68.658 68.658 0 0 1-1.368-2.534c-.06-.09-.09-.18-.149-.269.179.477.357.954.565 1.402.298.656.655 1.282.982 1.908.179.328.446.507.833.448.446-.03.863-.12 1.22-.418.03.03.03.06.06.06-.15.149-.269.328-.447.417-.387.239-.833.269-1.28.18-.148-.03-.356-.18-.416-.329-.476-.924-.952-1.879-1.398-2.803a2.534 2.534 0 0 1-.267-.656c-.03-.15 0-.298 0-.447.119-.12.208-.299.357-.388a6.137 6.137 0 0 1 1.01-.448c.358-.119.655-.03.834.299.238.387.476.805.654 1.222.298.806.506 1.551.803 2.267zm-8.507-.477c-.863 1.342-2.172 2.266-3.213 3.489.149-.418.446-.716.744-.984.803-.805 1.606-1.64 2.41-2.446 0-.03.029-.06.059-.06zM35.7 11.565c.03-.03.09-.06.209-.12.297.388.595.746.892 1.134.149.179.03.268-.09.387a68.77 68.77 0 0 1-2.082 2.088c-.535.507-.981 1.044-1.07 1.79-.179 1.371.357 2.415 1.546 3.1.357.21.774.389 1.16.478.477.09.804-.12 1.012-.596.387-.985.268-1.909-.476-2.684-.446-.477-.952-.955-1.428-1.432.06-.06.09-.12.149-.209.625.656 1.25 1.313 1.844 1.909-.267-.835-1.1-1.342-1.755-2.088l1.16-.984c.06-.06.238-.03.298.03l1.428.984c1.011.746 2.141.895 3.361.597a169.99 169.99 0 0 1 3.748-.865c.417-.09.833-.09 1.28-.09.505 0 .773.269.832.686.03.388-.297.865-.684.955-.595.119-1.16.238-1.755.357-1.19.21-2.41.358-3.6.657-.892.208-1.695.596-2.35 1.282-.386.418-.535.924-.565 1.491-.06 1.193.417 2.088 1.22 2.893 1.07 1.073 2.26 1.998 3.778 2.326 1.457.298 2.796.06 3.926-1.014.447-.447.714-.984.923-1.55.535-1.552 1.606-2.536 3.093-3.102.179-.06.387-.09.625-.15-.06.895-.06 1.76-.922 2.267l.06.06c.237-.15.475-.269.743-.418-.03.388-.446.418-.654.686.118.09.237.18.356.239.893.358 1.785.745 2.678 1.103.357.15.714.298 1.04.418.18.09.269.179.18.387-.15.299-.239.597-.387.865-.09.18-.238.269-.447.18-.862-.299-1.755-.567-2.617-.866-.476-.149-.952-.357-1.428-.477-1.13-.268-2.023.626-1.874 1.76.03.179-.06.387 0 .566.148.358.297.746.565.985.476.447 1.011.835 1.547 1.252.208.15.297.12.357-.179.119-.626.208-1.252.327-1.879.03-.179.119-.358.149-.537.06-.238.178-.328.416-.268.506.09.982.209 1.428.507.149.12.208.239.208.418-.06.596-.119 1.222-.178 1.819-.149 1.49.267 2.773 1.398 3.817.863.775 1.666 1.61 2.499 2.445.148.15.267.299.475.507-.386.18-.713.358-1.04.507-.328.15-.625.09-.893-.149-.744-.686-1.547-1.312-2.26-2.058-.982-1.013-1.905-2.117-2.827-3.19-1.13-1.283-2.558-2.118-4.164-2.565-1.1-.298-2.201-.597-3.332-.776-1.13-.208-2.29-.268-3.45-.03-1.13.24-1.964.836-2.589 1.79-.03.03-.059.09-.089.12-.595.924-.952 1.073-2.052.804-.238-.06-.447-.149-.744-.268.654-.835 1.487-1.312 2.32-1.79.833-.506 1.726-.834 2.678-1.043 0-.03 0-.06-.03-.09-.506.09-.982.18-1.488.299-1.249.238-2.29.864-3.331 1.52-.298.18-.595.359-.922.537-.298.15-.595.18-.893-.03-.267-.238-.297-.536-.238-.864.09-.477.387-.805.774-1.044.803-.507 1.695-.716 2.588-.925.624-.149 1.249-.268 1.844-.447.922-.268 1.041-.745.297-1.342-.862-.656-1.784-1.223-2.677-1.79-.803-.506-1.666-.864-2.35-1.52a16.715 16.715 0 0 1-1.041-1.014c-1.011-1.044-2.26-1.55-3.659-1.79-.833-.119-1.666-.328-2.499-.506-.178-.03-.297-.12-.178-.299 1.07.21 2.112.418 3.153.597 1.339.238 2.47.865 3.421 1.879.803.864 1.785 1.55 2.826 2.117.922.507 1.814 1.103 2.707 1.67.268.179.506.447.803.656-.09-.149-.178-.358-.297-.477a18.06 18.06 0 0 0-1.696-1.282c-.625-.418-1.309-.776-1.963-1.134a8.68 8.68 0 0 1-2.47-1.938c-1.07-1.163-2.439-1.76-3.985-1.968-.714-.09-1.428-.269-2.142-.418-.09-.03-.149-.06-.298-.09.179-.417.328-.805.506-1.192.149-.299.417-.239.684-.209.625.06 1.28.15 1.904.239 1.16.149 2.142-.239 2.975-1.014.714-.656 1.338-1.402 2.052-2.058.476-.477 1.012-.895 1.517-1.342zM52.984 22.21c.566.388 1.19.597 1.904.716l-.09.269c-.683-.09-1.338-.299-1.873-.686a.454.454 0 0 1-.179-.328c.09-1.491.179-2.983.298-4.444.03-.238.119-.328.357-.298.654.06 1.338.12 2.052.179-.03 1.64-.267 3.19-.803 4.712-.654-.03-1.25-.12-1.814-.477l-.09.089c.09.06.12.209.238.268zm3.005-.596c.892.268 1.785.567 2.677.865.506.179 1.011.417 1.547.566.416.12.833.18 1.22-.178-.09.328-.298.566-.625.536-.357-.03-.744-.09-1.071-.208-1.13-.388-2.231-.776-3.332-1.164-.089-.03-.148-.06-.238-.06-.476-.118-.476-.118-.476-.596.03-.507.06-1.014.12-1.49.03-.359.059-.418.416-.359.684.12 1.368.239 2.023.388.654.15 1.308.358 1.933.597.535.208.982.536 1.22 1.103.148.328.119.626-.09.925-.208.298-.535.357-.862.298a30.657 30.657 0 0 1-1.517-.507 332.18 332.18 0 0 1-2.915-.984c-.06-.03-.12-.03-.179-.03-.06.09-.06.209.149.298zm2.915 6.203c.476.358.952.686 1.458 1.014.803.537 1.636 1.103 2.439 1.64.119.09.238.09.357 0 .297-.268.624-.537.922-.775-.208.507-.654.835-1.13 1.133-.03.03-.15-.03-.209-.06l-1.695-1.163c-.684-.447-1.369-.894-2.023-1.342-.327-.208-.476-.507-.357-.894.119-.448.268-.865.417-1.283.119-.298.267-.358.594-.238.447.179.893.387 1.31.626a47.603 47.603 0 0 1 2.557 1.7c.804.626.804.865.06 1.55-.595.567-.654.567-1.309.09-.952-.656-1.904-1.282-2.856-1.909a5.47 5.47 0 0 1-.654-.506c-.03 0-.06.03-.09.03.06.148.12.298.209.387zm-2.648 14.464c.268-.09.536-.179.804-.298.267-.12.505-.269.743-.388l.06.06c-.12.119-.208.268-.327.328-.447.208-.893.417-1.339.596-.446.18-.654.06-.744-.417-.119-.597-.03-1.163.09-1.76.476-1.968 1.725-3.28 3.45-4.145 1.19-.597 2.47-.865 3.808-.686.446.06.862.149 1.22.417.178.12.237.269.059.448-.625.745-1.368 1.222-2.38 1.073-1.547-.238-3.123.835-3.57 2.327-.118.357-.178.685-.297 1.043-.06.18-.178.388-.327.448-.446.238-.892.417-1.368.596-.179.06-.387 0-.566 0 .06.358.238.507.684.358zm-1.16-5.338l-.535.805c-.654.865-.863 1.82-.714 2.863.268 1.67.565 3.31.833 4.98.09.447.149.895.238 1.372-.744.06-1.458.12-2.201-.09 0 .24.089.388.327.418l1.339.09c.178 0 .356-.03.565-.03.06.149.119.268-.09.268h-1.725c-.297 0-.446-.179-.506-.477-.148-.954-.327-1.909-.505-2.863-.179-.835-.744-1.014-1.398-.954-.15 0-.328.03-.476.09-1.28.387-2.32 1.132-3.064 2.266-.03.03-.06.06-.06.09-.03 0-.03-.03-.06-.03.18-.27.358-.567.566-.806.833-.924 1.814-1.61 3.064-1.849.535-.09 1.011 0 1.368.447 0-.566-.357-.954-.922-1.014-.446-.03-.892.06-1.309.24a6.384 6.384 0 0 0-2.41 1.848c-.862 1.014-.773 2.744.09 3.728.535.626 1.1 1.223 1.636 1.879a5.3 5.3 0 0 1 .863 1.49c-.655.06-1.31.06-1.874-.238-.209-.12-.328-.358-.476-.566-.12-.15-.179-.329-.268-.507h-.119c-.119.238-.298.447-.357.686-.327.924-.595 1.849-.922 2.773-.06.15-.09.268-.149.388-.268.656-.803.924-1.517.745-.208-.06-.387-.149-.565-.208v.03c-.03.238.119.357.357.447.297.09.565.208.862.298.536.12.685.06.952-.388-.178.656-.416.805-1.04.656-.328-.09-.625-.238-.953-.328-.208-.06-.297-.179-.208-.388.03-.089.03-.178.06-.268v-.06c.267-.864.535-1.73.743-2.594.179-.686.357-1.372.446-2.088.15-1.46-.565-2.505-1.844-3.101-.833-.388-1.725-.626-2.618-.805-1.933-.448-3.867-.925-5.652-1.85-1.19-.626-2.32-1.341-3.45-1.997-.208-.12-.387-.239-.625-.358.268.447 1.28 1.342 2.35 1.998.893.537 1.785 1.014 2.707 1.52-1.666.776-2.885 1.94-3.242 3.788-.357 1.879.476 3.34 1.814 4.593a3.99 3.99 0 0 1-1.25 1.014c-.059.03-.207 0-.267-.06-.535-.328-1.04-.686-1.547-1.044-.892-.626-1.844-.745-2.885-.536-1.487.298-2.975.626-4.462.894-.506.09-1.011.12-1.547.18 0 .238.09.357.387.327.862-.12 1.725-.209 2.588-.388 1.22-.208 2.41-.477 3.6-.715.891-.18 1.695.12 2.438.596.506.328 1.012.656 1.488 1.014.178.12.327.12.476 0 .357-.298.743-.566 1.1-.835-.06.09-.089.209-.178.298-.357.299-.744.597-1.13.895-.06.06-.238 0-.328-.03a19.873 19.873 0 0 1-1.309-.865c-.981-.745-2.082-.924-3.272-.656-1.487.328-3.004.627-4.521.925-.357.06-.714.06-1.071.09-.208.03-.327-.09-.387-.299-.09-.537-.09-1.044.06-1.58.089-.299.267-.448.565-.508.952-.178 1.874-.357 2.826-.507 2.647-.447 4.849-2.624 5.265-5.278.268-1.7-.387-3.072-1.725-4.116-.209-.149-.417-.328-.625-.477-.417-.298-.535-.686-.446-1.163a4.806 4.806 0 0 1 .803-1.938c.09-.12.208-.239.327-.358a.492.492 0 0 1 .595-.06c.625.388 1.25.746 1.874 1.133 1.339.836 2.826 1.283 4.373 1.462.743.09 1.487.12 2.23.149 0-.03 0-.06.03-.12-.237-.06-.475-.148-.713-.208-1.607-.507-3.243-.955-4.76-1.76a10.345 10.345 0 0 1-1.785-1.193c-.565-.447-.951-1.043-1.011-1.819-.03-.447-.03-.924.03-1.372.089-.566.476-.745.952-.447.565.388 1.1.805 1.606 1.253 1.041.894 2.052 1.789 3.302 2.326.952.417 1.933.715 2.885 1.103.476.18.922.358 1.369.597a.956.956 0 0 1 .565.805c.09.924.625 1.491 1.368 1.908 1.993 1.074 4.046 1.253 6.158.358 1.011-.447 1.695-1.282 2.201-2.206.327-.597.625-1.223.922-1.85.506-1.103 1.16-2.117 2.023-2.982.595-.596.863-.566 1.398.09.03.03.06.09.09.149.208.268.237.537 0 .865zm.09.507c-.357.536-.685 1.044-1.041 1.55-.03 0-.03-.03-.06-.03.327-.536.684-1.043 1.011-1.58.06.03.06.06.09.06zm-5.087 14.91c-.654.06-1.309.06-1.934-.208-.178-.06-.297-.238-.446-.388-.09-.089-.178-.178-.297-.268.03-.03.089-.12.148-.239.06.06.15.09.179.12.327.566.892.626 1.457.686.238.03.447.03.685 0 .148.03.238.09.208.298zm-4.194 6.74a39.23 39.23 0 0 1-3.035-.924c-.713-.238-1.398-.298-2.112-.06-.535.18-.981.12-1.398-.268-.327-.298-.684-.507-.981-.805-.209-.179-.179-.239-.12-.417.506.387 1.012.775 1.547 1.163.239.178.536.178.774.089 1.041-.358 1.993-.15 2.975.209.773.298 1.576.477 2.35.686.267.06.535.09.743-.239-.149.507-.327.656-.743.567zm.386 1.76c.357.12.714.269 1.1.388.685.209 1.34.15 1.786-.537-.268.716-.863 1.044-1.577.865a9.222 9.222 0 0 1-1.19-.388c-.208-.06-.208-.09-.119-.328zm-2.171-1.7c-.208.388-.387.746-.595 1.104-.506.775-1.011 1.52-1.517 2.296a3.349 3.349 0 0 1-.536.597c-.565.536-1.16.536-1.725.03-.565-.478-.535-.478-.149-1.074.744-1.044 1.458-2.118 2.202-3.161.297-.418.327-.448.803-.269.505.09.981.269 1.517.477zm-9.579-8.738c.298-.835.982-1.282 1.696-1.64.03.03.09.06.119.06-.06.238-.12.507-.208.745a24.933 24.933 0 0 1-.982 1.7c-.149.269-.297.239-.476 0-.178-.268-.268-.536-.149-.865zm-1.25-1.878c.536-.746 1.22-1.283 2.024-1.73.446-.239.952-.418 1.428-.626.06-.03.178.06.297.09-.06.059-.119.178-.178.178-1.964.656-1.964.656-3.57 2.088zm4.404 2.266c.475-.954.803-1.968.922-3.042.03-.179 0-.387 0-.566 0-.328.089-.478.386-.478.566 0 1.13.03 1.696.09.357.03.714.12.922.179-.268.328-.565.686-.892 1.044-.595.715-.684 1.55-.595 2.415.06.448.297.776.743.895.625.209 1.28.358 1.934.537.327.09.654.149 1.07.238-.118.328-.207.627-.356.925-.208.507-.208.507-.744.447-.773-.09-1.517-.209-2.29-.298-1.339-.209-2.5.149-3.392 1.193-.773.895-1.487 1.849-2.23 2.743-.15.21-.328.388-.506.597-.149.179-.357.179-.476.03a16.174 16.174 0 0 1-.863-1.133c-.03-.03.03-.18.09-.24.327-.357.654-.715 1.01-1.043 1.399-1.342 2.708-2.773 3.57-4.533zm2.766-1.819c0-.03 0-.09.03-.12.416-.685.952-1.252 1.666-1.61.119-.06.267-.06.386-.06 0 .03.03.06.03.12a4.294 4.294 0 0 0-2.112 1.67zm2.44.388c.088.03.118.328.148.477-.03.03-.06.03-.09.06-.208-.03-.386-.09-.654-.12.209-.238.327-.507.595-.417zm-9.4 8.2c.564.776.713.776 1.367.12.923-.954 1.815-1.909 2.767-2.803 1.22-1.133 2.677-1.462 4.284-1.163.476.09.951.119 1.457.179-.03.208-.149.268-.357.238-.654-.09-1.279-.179-1.933-.238-1.16-.15-2.231.179-3.124.924-.922.775-1.725 1.67-2.588 2.505-.357.328-.684.686-1.011 1.014-.12.12-.268.15-.417.03-.505-.388-.803-.925-1.04-1.491-.03-.06 0-.15.029-.298.208.387.357.686.565.984zm3.45-1.043c1.22.925 2.439 1.79 3.688 2.744-.386.477-.743.894-1.13 1.312-.03.03-.178.03-.208 0-1.31-.835-2.499-1.82-3.63-2.863 0 0 0-.03-.03-.06.417-.358.864-.745 1.31-1.133zm9.548 1.7c-.089.179-.267.238-.446.209-1.07-.18-2.112-.418-3.064-.984-.089-.06-.178-.09-.238-.15-.743-.507-1.546-.596-2.35-.178-.505.268-.892.178-1.308-.15a59.185 59.185 0 0 1-.744-.566c1.1-.686 2.171-1.133 3.45-.955 1.428.18 2.797.686 4.165 1.104.298.09.565.179.863.268.178.06.267.18.178.388-.178.358-.327.686-.506 1.014zM27.224 46.994c-.893.298-1.696.775-2.261 1.55.208-.506.595-.834 1.011-1.133.893-.596 1.904-.954 2.945-1.222.446-.12.922-.21 1.369-.328.119.268-.03.268-.179.298-.982.298-1.963.507-2.885.835zm.505 1.968a38.13 38.13 0 0 0-1.13.805c-.03-.03-.06-.09-.09-.119a26.11 26.11 0 0 1 1.16-.775c0 .03.03.06.06.09zm-2.677 2.505c-.119.12-.208.269-.297.298-.536.09-1.071.18-1.577.21-.178 0-.357-.12-.506-.21-.148-.119-.297-.178-.505.03.178-.507.267-.537.624-.268.298.209.625.209.952.179.417-.06.833-.15 1.309-.239zm-4.73-10.05c.03-.507.03-1.014.09-1.52.119-1.253-.298-2.327-.982-3.341-.238-.358-.506-.716-.744-1.074-.267-.417-.267-.835.03-1.252 1.368-1.76 2.856-3.43 4.849-4.533 1.04-.597 2.201-.865 3.42-.716.566.09.982.358 1.131.954.297 1.104.714 2.177.595 3.34-.06.597-.268 1.164-.417 1.73a3.402 3.402 0 0 0-.03 1.64c.06.239 0 .388-.148.537-.684.716-1.28 1.521-1.547 2.475-.119.448-.178.925-.297 1.343-.06.238-.179.507-.387.626-1.19.895-2.529 1.49-4.016 1.7-.952.119-1.428-.328-1.487-1.313-.06-.149-.06-.357-.06-.596zm-4.253 1.76c.624.178 1.22.387 1.873.566-.03.06-.03.15-.059.239h-.09c-.594-.18-1.19-.358-1.784-.507-.208-.06-.268-.18-.238-.358.09-.567.178-1.163.268-1.73.089-.715.148-1.431-.09-2.117-.238-.656-.654-1.193-1.13-1.7-.892-.895-1.785-1.76-2.677-2.624a10.682 10.682 0 0 1-.535-.597c-.12-.12-.179-.268-.09-.387.952.894 1.904 1.819 2.826 2.713.298.299.595.597.863.925.268.328.505.686.773 1.073-.06-.149-.119-.298-.178-.387-.417-.865-1.071-1.521-1.726-2.207a161.78 161.78 0 0 0-2.29-2.446c.416-.298.773-.626 1.25-.686.178-.03.445.06.594.18.536.477 1.071.984 1.577 1.52.773.806 1.547 1.61 2.26 2.476.833.984 1.25 2.117.982 3.43-.178.864-.357 1.729-.535 2.624 0 .06-.03.09-.09.208-.654-.179-1.308-.387-1.992-.566-.03.179.059.298.238.358zm-2.886 3.638c-.119.358-.297.477-.595.388a9.98 9.98 0 0 1-1.279-.597c-.416-.238-.535-.686-.387-1.133a26.58 26.58 0 0 1 .714-2.177 4.596 4.596 0 0 0 .268-1.55c0-.627-.03-1.253.06-1.85.089-.716.535-1.252 1.07-1.7.179-.149.298-.09.417.06.773.954 1.22 2.028.952 3.25-.268 1.313-.655 2.625-1.012 3.937-.089.298-.149.567-.268.835-.118.298-.297.358-.594.298-.536-.119-1.16-.447-1.518-.835 0 .567 1.488 1.402 2.172 1.074zm-2.38-19.086c.12.089.357.06.506 0l2.588-1.163c.387-.18.744-.358 1.13-.537.03.03.03.06.06.09-.09.089-.149.178-.238.238l-3.659 1.7c-.297.149-.535.06-.684-.21-.238-.417-.417-.894-.595-1.341-.09-.209 0-.388.178-.507.387-.268.774-.537 1.19-.746.982-.477 2.023-.864 3.124-1.073.178-.03.267 0 .297.179.09.357.208.686.268 1.043.03.09-.06.269-.149.299-1.25.596-2.499 1.163-3.718 1.73-.209.089-.387.03-.536-.15-.148-.179-.267-.387-.416-.566.149.358.297.775.654 1.014zm18.77.238c-.832-1.52-2.439-2.117-3.867-2.058-1.457.09-2.677.716-3.807 1.551-1.696 1.253-3.005 2.833-4.284 4.473-.565.716-1.19 1.372-1.814 2.058-.506-.358-.863-.775-1.19-1.222-.03-.03.03-.18.06-.239.208-.328.446-.656.684-.984.773-1.014.951-2.147.684-3.4a205.523 205.523 0 0 1-.863-4.145c-.09-.448-.09-.895-.119-1.342 0-.269.12-.388.387-.448.476-.089.952-.06 1.398.09.357.12.506.358.595.745.238 1.313.476 2.625.743 3.937.03.209.12.388.209.596.06.18.178.21.327.09a19.23 19.23 0 0 1 1.28-.865 96.805 96.805 0 0 1 2.498-1.282c.089-.06.208-.09.297-.15.506-.298.684-.745.387-1.282-.268-.507-.595-.954-.863-1.431a207.999 207.999 0 0 1-2.29-4.444c-.298-.626-.208-.715.476-.686.357 0 .743.09 1.1.12.417.06.685.298.833.685h.09c.267-.566.565-1.133.803-1.7.297-.745.565-1.49.833-2.266.089-.298.297-.417.595-.328.357.09.684.15 1.04.239.209.06.15.208.12.357-.328 1.014-.625 2.058-.982 3.042-.149.478-.387.925-.595 1.372-.238.537-.297 1.074-.119 1.67-.09-.745.298-1.342.536-1.998.505-1.282.981-2.594 1.487-3.877.03-.03.03-.09.06-.119.03 0 .059 0 .059.03-.12.447-.208.894-.357 1.312-.446 1.133-.863 2.266-1.398 3.37-.417.865-.298 1.64.178 2.416.803 1.312 1.904 2.266 3.362 2.803.654.238 1.279.507 1.874.865.952.537 1.517 1.431 2.023 2.386.297.566.565 1.163.892 1.759.565 1.014 1.487 1.521 2.618 1.64.654.06 1.338.09 1.993.18.803.089 1.25.536 1.517 1.282.03.089-.179.357-.298.417-.386.09-.773.179-1.16.15-1.22-.06-2.32-.508-3.39-1.015-.328-.149-.685-.328-1.012-.477-.03.03-.03.06-.06.09.298.208.595.477.922.656.506.238 1.012.477 1.547.626a28.48 28.48 0 0 0 2.29.537c.417.09.863.06 1.22-.239 0 .239-.089.328-.357.418-.476.179-.922.09-1.398.03-1.398-.15-2.617-.776-3.867-1.372-.09-.06-.208-.09-.297-.12.297.448.714.776 1.16 1.014 1.19.627 2.44 1.074 3.778 1.253.386.06.743.09 1.13.09.297 0 .565.119.684.387.149.358.357.746.327 1.103-.06.925-.654 1.283-1.517 1.014a8.867 8.867 0 0 1-1.725-.745c-1.428-.776-2.856-1.58-4.135-2.565-.892-.686-1.695-1.461-2.32-2.475.06.12.119.268.178.387.536 1.044 1.28 1.88 2.142 2.625a20.085 20.085 0 0 0 5.146 3.34c.357.15.744.239 1.101.328.446.12.833 0 1.16-.358-.03.298-.297.597-.624.597-.387.03-.774 0-1.13-.09-.953-.268-1.815-.805-2.678-1.312a21.76 21.76 0 0 1-3.272-2.446c-1.398-1.252-2.35-2.743-2.588-4.622-.03-.12-.06-.239-.06-.358-.238-1.55-1.309-2.177-2.707-2.475-1.636-.358-3.153.06-4.58.835-2.023 1.103-3.57 2.714-4.998 4.503-.595.746-1.25 1.432-1.904 2.147a10.097 10.097 0 0 1-1.25-1.282c-.118-.09-.208-.179-.327-.268l.09-.09c.06.12.148.239.238.328.267.209.535.447.803.656.446.388.476.388.833-.03.833-.924 1.636-1.878 2.469-2.833 1.309-1.49 2.736-2.803 4.551-3.668 1.041-.507 2.142-.805 3.302-.716 1.041.09 2.023.329 2.796 1.074.09.09.179.209.298.298.06-.03.03-.09 0-.149zM23.09 13.056c-.298-.15-.327-.239-.238-.507.178.09.387.239.595.298 1.428.418 2.826.805 4.253 1.163 1.458.388 2.767-.03 4.046-.775-.149.149-.238.328-.416.417-1.041.597-2.142.985-3.362.716-1.07-.239-2.112-.596-3.183-.895-.416-.119-.862-.208-1.279-.328a.948.948 0 0 1-.416-.09zm3.659 6.949c1.725.089 3.331.536 4.61 1.819 1.042 1.043 2.231 1.908 3.57 2.505.06.03.149.09.238.149a3.419 3.419 0 0 1-1.458.507c-.595.06-1.19-.06-1.665-.418-1.16-.835-2.41-1.431-3.66-2.087-.624-.328-1.16-.835-1.695-1.312-.178-.15-.297-.388-.357-.627-.119-.328.06-.536.417-.536zM41.83 34.677c-.386-.745-.684-1.52-.833-2.386-.06-.298-.297-.596-.446-.894-.119-.239-.268-.448-.357-.716-.148-.298-.03-.626.298-.716.535-.119 1.07-.179 1.338-.238 2.023.09 3.748.328 5.385.984 1.279.537 2.29 1.401 3.182 2.415.357.418.685.836 1.041 1.253.209.268.239.567.03.805-1.04 1.342-1.695 2.923-2.498 4.414-.893 1.67-2.47 1.968-3.897 1.73-.625-.12-1.22-.329-1.815-.507-.268-.09-.446-.269-.476-.597a2.793 2.793 0 0 0-.208-.656c-.268-.567-.268-1.133-.208-1.73a5.203 5.203 0 0 0-.536-3.16zm12.791.447a90.337 90.337 0 0 1-3.123-3.608 8.798 8.798 0 0 0-4.462-2.833 31.55 31.55 0 0 0-3.332-.716 9.24 9.24 0 0 0-3.004.03c-1.011.179-1.934.507-2.648 1.282-.178.18-.357.388-.446.627-.386.745-.981.924-1.755.775-.268-.06-.535-.12-.773-.239-.268-.119-.328-.328-.238-.536.208.119.386.298.624.387.328.09.714.15 1.071.18.417.03.744-.15.982-.478a9.43 9.43 0 0 1 .476-.686c.744-.954 1.755-1.372 2.915-1.55 2.053-.329 4.016.03 5.98.596 1.249.358 2.468.865 3.51 1.7.832.686 1.517 1.52 2.17 2.356 1.102 1.371 2.262 2.684 3.57 3.847.774.686.655.626 1.547.149.298-.15.566-.388.833-.567l.06.06c-.12.149-.238.298-.387.388-.357.238-.744.447-1.1.656-.209.119-.387.119-.566-.03-.684-.626-1.338-1.163-1.904-1.79zm3.719-.894c-.208.209-.417.238-.625.03a29.98 29.98 0 0 1-.952-.984c-.06-.09-.06-.239-.089-.418.416.418.744.746 1.1 1.074.328.298.417.298.714-.03.863-.955 1.666-1.939 2.5-2.893a.603.603 0 0 1 .237-.239.649.649 0 0 1-.148.239 21.744 21.744 0 0 1-2.737 3.22zm-2.767-6.71c.268-1.133.625-2.237.952-3.34l.357-1.253c.06-.179.179-.268.357-.179.506.209 1.041.418 1.547.597.179.06.238.179.179.387a353.27 353.27 0 0 1-.804 2.834c-.208.715-.178 1.46-.089 2.206.06.478-.03.895-.327 1.283-.208.238-.417.477-.655.715-.297.269-.565.269-.803-.06-.178-.208-.297-.476-.446-.715.149.447.327.895.684 1.193.209.179.417.15.625-.03.178-.149.387-.298.565-.447.09-.09.149-.209.238-.298.03.03.03.06.06.06-.09.089-.209.148-.298.238l-.357.447c-.476.537-.773.686-1.309-.179-.654-1.044-.803-2.236-.476-3.46zm-.862-1.312c-1.071-.358-2.112-.746-3.154-1.104-.237-.09-.475-.149-.713-.209-.625-.149-1.13.06-1.488.627.09-.567.744-1.014 1.339-.925.416.06.833.209 1.25.358l2.855.984c.297.09.625.15.773-.268-.148.596-.297.716-.862.537zm4.521 3.16c.149-.178.327-.238.536-.089.416.299.833.567 1.249.895.06.03.06.239.03.298-.803 1.133-1.696 2.207-2.707 3.161a.778.778 0 0 1-.268.15.483.483 0 0 1-.178-.09 22.737 22.737 0 0 1-.893-.835c-.06-.06-.06-.209-.03-.268.655-1.134 1.369-2.237 2.261-3.221zM33.143 13.176c-.06.03-.238 0-.297-.06-.714-.506-1.458-.984-2.172-1.52-.386-.269-.714-.627-1.04-.955-.18-.179-.239-.387-.15-.626.506.805 1.28 1.312 1.993 1.849.447.328.952.626 1.428.954.179.12.327.12.476-.03.327-.298.684-.596 1.041-.924-.297.597-.743 1.014-1.279 1.312zm.952-1.431c-.268.238-.535.507-.833.716-.09.06-.297.089-.386.03-1.19-.687-2.291-1.492-3.243-2.506-.03-.03-.09-.12-.09-.149.03-.328.566-.954.893-1.044.06-.03.12 0 .268-.03.09.03.268.09.416.18a15.09 15.09 0 0 1 2.975 2.326c.179.178.179.328 0 .477zm-3.54-4.802a136.478 136.478 0 0 1-2.38 3.43c-.208.298-.446.417-.773.298a42.436 42.436 0 0 1-1.547-.626c.446-.746.803-1.432 1.22-2.088.357-.537.714-1.073 1.13-1.58.655-.805 1.488-.835 2.261-.12.327.299.357.328.09.686zm-3.272 4.056c.535.209.744.12 1.07-.358.09-.119.18-.238.269-.328a19.869 19.869 0 0 1 1.904-2.773c.03 0 .03.03.059.03l-.446.626a72.681 72.681 0 0 0-1.31 1.909 1.232 1.232 0 0 1-.178.208c-.208.299-.386.627-.624.895-.12.12-.417.15-.595.09a10.42 10.42 0 0 1-1.428-.657c-.09-.06-.119-.238-.178-.387.505.298.951.536 1.457.745zm-1.041.418c.922.358 1.844.537 2.826.477.357-.03.714 0 1.07.06.566.119 1.042.447 1.458.954a27.45 27.45 0 0 1-.833.477c-1.308.626-2.647.567-4.015.12-1.071-.329-2.172-.627-3.243-.925-.208-.06-.386-.15-.624-.239.148-.417.267-.775.416-1.133.178-.418.416-.567.863-.447.684.178 1.398.357 2.082.656zM23.446 8.97c-.476 1.313-.982 2.595-1.398 3.877-.209.597-.625.716-1.16.716-.417-.03-.804-.03-1.16-.328-.03.03-.06.06-.09.06.12.119.179.298.327.387.387.298 1.488.298 1.904.03-.09.328-.149.418-.446.418-.446 0-.892 0-1.309-.06-.387-.06-.565-.328-.506-.716.12-.805.268-1.61.476-2.386a9.922 9.922 0 0 1 .714-1.76c.238-.476.595-.834 1.16-.894.536-.06.982.15 1.428.388.03.03.09.179.06.268zm-2.826 5.607c.773.09 1.547.298 2.32.447.06 0 .09.03.238.09-.208.447-.387.864-.625 1.282-.06.09-.297.12-.446.12-.506 0-1.011 0-1.487-.06a78.473 78.473 0 0 1-2.618-.328c-.119 0-.208-.06-.327-.09-.03.239.09.388.297.418.566.09 1.1.209 1.666.268.863.06 1.755.09 2.648.12.148 0 .327-.09.476-.12-.09.328-.328.418-.685.418-1.309-.03-2.617-.12-3.897-.358-.535-.09-.565-.15-.654-.686-.06-.447 0-.895.208-1.312.12-.21.268-.328.536-.328.773.03 1.547.03 2.35.119zm-7.467 7.813c.03.15.03.299.06.448.119.328-.03.477-.298.596-.386.15-.773.328-1.16.447-.476.15-.595.06-.773-.387-.03-.06-.06-.09-.09-.15-.03 0-.03 0-.059.03.09.269.119.537.268.776.06.09.267.179.386.149.536-.15 1.042-.328 1.547-.507a.46.46 0 0 1 .238-.06c-.06.09-.089.21-.149.239-.535.328-1.1.567-1.755.626-.238.03-.386-.06-.446-.328-.327-1.64-.714-3.28-1.1-4.95-.12-.477-.06-.597.416-.746.387-.12.803-.239 1.22-.268.505-.06.773.119.892.626.298 1.163.536 2.326.803 3.46zm-3.034.686c-.119.09-.238.239-.357.299-.952.596-1.933 1.163-2.856 1.789-.446.298-.803.745-1.13 1.073.179-.447.565-.835.982-1.192 1.011-.836 2.171-1.432 3.302-2.088.03.06.03.09.06.12zm-3.302 2.982c.446-.417.893-.805 1.369-1.192.148-.12.297-.06.416.09.119.148.208.327.297.476a147.91 147.91 0 0 1 1.488 3.132c.06.149.119.298.208.447.178.358.06.626-.149.895-.505.626-1.338.656-1.784.03-.506-.686-.893-1.432-1.34-2.148l-.178-.358c.298.865.744 1.64 1.25 2.386.119.15.238.328.357.477.446.537 1.1.597 1.636.15.09-.09.178-.18.297-.269-.148.418-.446.686-.892.805-.387.09-.744.03-1.011-.268-.714-.805-1.22-1.76-1.666-2.744a15.925 15.925 0 0 1-.417-1.073c-.149-.299-.119-.627.12-.835zm1.369 5.726c1.517.15 2.855-.626 3.48-2.057.178-.388.297-.776.446-1.163.149-.388.387-.657.774-.835.327-.15.684-.299 1.011-.448.327-.12.387-.09.476.269.119.596.03 1.192-.149 1.76-.684 2.176-2.26 3.488-4.373 4.174-1.16.388-2.35.358-3.54.06-.237-.06-.475-.179-.743-.298.446-.627.922-1.134 1.576-1.432.328-.09.714-.06 1.042-.03zM6.52 33.962c3.272.805 6.395-1.074 7.526-3.58.03-.03.06-.089.089-.119-.178.597-.506 1.134-.893 1.64-1.13 1.402-2.587 2.208-4.372 2.476-.952.15-1.874.06-2.796-.239a1.509 1.509 0 0 1-.476-.268c-.09-.09-.12-.268-.179-.417.03 0 .06-.03.09-.03.297.358.654.447 1.01.537zm4.67 2.147c.744-.627 1.339-.507 1.874.298.06.06.06.239 0 .298-.625.925-1.28 1.82-1.934 2.744a.696.696 0 0 1-.208.209c-.416.387-.743.417-1.22.089-.267-.179-.475-.417-.713-.596.089.447.803 1.133 1.25 1.192.386.06.683-.149.891-.447.566-.745 1.101-1.491 1.637-2.207.089-.149.178-.268.327-.387-.03.089-.09.149-.12.238-.564.805-1.13 1.64-1.725 2.416-.654.865-1.07.894-1.874.208-.595-.507-.684-1.043-.238-1.67.625-.894 1.25-1.7 2.053-2.385zm-2.707 1.878c-.238.09-.506.15-.773.21-.833.148-1.547.506-2.053 1.192.149-.417.446-.686.803-.954.476-.328 1.012-.448 1.547-.567.714-.149 1.368-.388 1.815-1.014-.238.627-.744.925-1.339 1.133zm-2.677 2.565c.149-.537.416-.984.862-1.312.209-.15.447-.179.655-.03 1.19.835 2.41 1.64 3.6 2.505.445.328.445.627.059 1.014-.298.299-.595.418-1.012.299-.803-.21-1.517-.597-2.2-1.044-.655-.388-1.25-.865-1.934-1.313.119.18.178.328.267.448 1.16.984 2.35 1.879 3.748 2.505.03.03.09.03.12.06.565.208.832.149 1.19-.358-.09.566-.566.894-1.101.686a17.104 17.104 0 0 1-1.934-1.014c-.714-.448-1.368-.984-2.023-1.491-.297-.299-.386-.597-.297-.955zm18.413 15.09c-.09-.238 0-.387.208-.417.417-.09.803-.18 1.22-.269.327-.06.565.09.744.358.297.537.624 1.104.892 1.67.238.477.416 1.014.625 1.491.089.18.06.299-.12.388-.386.209-.773.418-1.16.597-.208.119-.386.03-.535-.15-.208-.298-.416-.596-.595-.924-.357-.745-.654-1.491-1.011-2.237h-.06c.298.746.536 1.492.863 2.237.178.417.446.835.684 1.253.149.268.387.298.655.178.446-.208.922-.447 1.427-.685-.119.119-.178.268-.297.357-.416.239-.833.448-1.25.627-.297.119-.505.03-.713-.358a18.987 18.987 0 0 1-.833-1.76c-.268-.775-.476-1.58-.744-2.356zm5.206 3.55c.446-.21.714-.18 1.07.178.18.209.328.448.477.656.148.18.089.358-.09.477-.178.15-.327.299-.505.418-.803.477-1.607.954-2.41 1.402-.505.268-1.07.417-1.606.178-.535-.238-.982-.626-1.369-1.163.506-.238.982-.447 1.428-.685 1.012-.448 1.993-.955 3.005-1.462zm-4.581 2.325c.03 0 .06 0 .06-.03.297.508.713.895 1.219 1.223.416.298.892.388 1.338.209 1.28-.477 2.41-1.193 3.48-2.028l.18-.179c-.09.328-.328.567-.625.746-.833.507-1.696 1.044-2.558 1.52a2.02 2.02 0 0 1-.714.24c-.238.03-.476.059-.685-.03-.743-.24-1.279-.746-1.695-1.402 0-.06.03-.18 0-.269zm11.423 4.623c.594.12 1.07.507 1.576.894a8.203 8.203 0 0 1-3.897.15c.684-.567 1.339-1.223 2.32-1.044zm-.744-8.261a24.555 24.555 0 0 0 4.016 3.191 39.73 39.73 0 0 1 1.13-1.342c-.327.656-.773 1.133-1.25 1.64-.535-.387-1.1-.775-1.635-1.193a59.09 59.09 0 0 1-2.083-1.76c-.178-.148-.297-.297-.178-.536zm3.57 4.89h.089c.178.21.327.418.505.627.655.686 1.369.746 1.964 0 .595-.716 1.1-1.49 1.636-2.266a7.15 7.15 0 0 0 .387-.627c.03 0 .03.03.06.03l-.269.448c-.565.835-1.07 1.67-1.695 2.445-.803 1.044-1.607 1.014-2.44-.03-.089-.12-.208-.238-.267-.358 0-.06.03-.179.03-.268zM44 61.25c.06-.06.268-.09.357-.06 1.547.418 3.123.835 4.67 1.283.327.09.357.149.178.417-.148.239-.357.477-.535.686-.416.507-.922.656-1.606.507-1.31-.328-2.588-.716-3.808-1.282-.09-.03-.178-.09-.327-.15.387-.477.714-.954 1.07-1.401zm5.206-1.193c-.358.835-.952 1.074-1.815.835-.327-.09-.655-.209-1.011-.328.237-.596.505-1.133.713-1.7.328-.865.625-1.76.893-2.624.119-.358.357-.507.684-.507.476.03.952.06 1.428.12.178.029.238.118.208.327-.149 1.372-.565 2.654-1.1 3.877zm-1.815-5.04c-.09-.03-.208-.06-.298-.09-.357-.148-.386-.208-.327-.566.179.12.357.268.565.298.804.15 1.607.298 2.41.388.863.09 1.725.09 2.677.12-.178.089-.268.238-.386.238-1.577.03-3.124-.03-4.641-.388zm4.7-.716c-.03.09-.178.18-.268.18-1.457.089-2.915.148-4.343-.12-.238-.03-.446-.15-.714-.239.208-.417.387-.835.625-1.193.06-.119.297-.208.446-.178l2.172.089c.714.03 1.398.09 2.082.15.09 0 .178.029.357.059-.12.447-.208.865-.357 1.252zm6.633-9.662c-.981.417-1.992.775-2.974 1.163-.387.15-.476.09-.565-.328a21.084 21.084 0 0 1-.298-1.461c-.06-.269.12-.418.327-.507 1.101-.507 2.172-.985 3.272-1.492.238-.119.477-.208.744-.328.268.478.506.955.774 1.402.089.15 0 .239-.12.328-.654.328-1.308.656-1.963.925-.654.268-1.338.507-2.022.745-.179.06-.387.09-.595.15.089.327.148.417.446.298 1.368-.507 2.766-.925 4.045-1.67.12-.06.238-.15.417-.18-.09.09-.149.24-.268.299-.416.238-.803.507-1.22.656zm2.945-6.501c-1.279-.18-2.23.387-3.034 1.312a.41.41 0 0 0-.089.12c.238-.538.625-.925 1.1-1.224.625-.387 1.31-.596 2.083-.477.982.15 1.755-.268 2.38-.984l.06-.06.059.06c-.179.209-.328.447-.536.626-.565.448-1.22.746-2.023.627zm-2.022-4.325c.03-.06.03-.09.06-.119.029-.03.059-.06.059-.09 2.736.925 5.146.686 6.782-1.998-.446 2.297-4.64 3.669-6.901 2.207zm4.938-10.795c-.179.864-.447 1.7-.893 2.445-.595.984-.833.954-1.844.328-.149-.09-.268-.238-.446-.417.089.357.267.596.505.775.209.15.417.268.655.358.476.209.654.149.981-.269.06-.06.12-.149.179-.208.03.03.06.06.09.06-.239.238-.447.477-.685.715-.06.06-.178.06-.268.06-.714-.03-1.547-.746-1.576-1.432-.03-.358.06-.745.148-1.103.238-.925.536-1.85.804-2.774.297-1.043.952-1.252 1.725-.507.506.507.803 1.163.625 1.969zm-3.451-5.488c.119-.387.178-.775.327-1.133.12-.328.387-.358.595-.09.327.388.655.776.893 1.194.416.685.803 1.401 1.19 2.087.03.06.059.15.089.239-1.071-.537-2.142-1.104-3.005-1.939-.03 0-.03.03-.06.03.12.179.209.388.358.507.446.358.892.686 1.368.984.476.298.982.537 1.458.805.06.03.089.15.119.21l-.09.089c-.119-.03-.267-.06-.386-.15a89.77 89.77 0 0 1-2.231-1.371c-.506-.299-.803-.776-.625-1.462zm-2.975-2.207c.209-.715.506-1.401.804-2.117.119-.298.327-.388.594-.179.595.477 1.16 1.014 1.428 1.76.06.149.03.387 0 .566-.178.835-.357 1.7-.565 2.505-.297 1.074-.773 1.313-1.844.955a9.088 9.088 0 0 1-.803-.328c-.06.208 0 .328.178.387.387.15.803.328 1.19.418.416.09.803 0 1.07-.418-.118.567-.564.835-1.13.716-.446-.09-.862-.298-1.308-.477-.06-.03-.12-.179-.12-.268 0-1.193.18-2.357.506-3.52zm-1.279-.685c.714.03.774.477.684 1.013l-.089.358c-.119.507-.357.657-.892.597-.922-.09-1.845-.209-2.797-.298-.773-.06-1.546-.09-2.32-.15-.119 0-.238-.03-.386-.06.03.3.148.388.386.418.714.06 1.428.09 2.112.15.922.089 1.874.178 2.797.268.446.06.684.03 1.01-.15-.088.299-.267.478-.564.448-.476-.03-.982-.12-1.458-.179-.892-.06-1.755-.12-2.647-.179-.447-.03-.893-.09-1.369-.12-.208-.029-.386-.118-.386-.327 0-.537-.03-1.104 0-1.64 0-.12.148-.269.267-.299.268-.09.536-.178.803-.149.982 0 1.994.03 2.975.06.655.09 1.25.209 1.874.239zm-2.2-5.996c.803.328 1.398.835 1.815 1.521-.506.388-.804.18-1.547-.865.178.507.416 1.014.922 1.342.208.15.476.15.684-.03 0 .299-.327.537-.595.388-.238-.12-.506-.298-.625-.507-.267-.447-.446-.954-.654-1.431-.03-.12 0-.239 0-.418zm-.744.09c.536.745.774 1.58.982 2.445.119.447.178.865.268 1.312.06.328-.06.627-.387.686-.476.09-.982.18-1.458.12-.238-.03-.476-.299-.684-.418.149.537.446.805 1.1.835.626.03 1.101-.09 1.429-.358-.03.269-.209.448-.417.477-.416.09-.833.15-1.22.15-.505 0-.803-.329-.951-.806-.15-.447-.238-.894-.387-1.342l-.892-2.594c-.06-.21-.12-.388-.179-.597-.06-.447.09-.686.535-.805.863-.209 1.726.12 2.261.895zm-5.74-3.758c.386.06.773.15 1.13.298.832.388 1.665.835 2.498 1.283.06.03.09.09.149.119v.09c-.625 0-1.28.03-1.904 0-.744-.06-1.368-.358-1.844-.955a3.88 3.88 0 0 1-.298-.447c-.03 0-.06.03-.06.03.18.298.328.596.536.835.506.626 1.22.894 1.993.894.655.03 1.31-.06 1.964-.09.089 0 .148.03.238.06-.06.06-.12.18-.179.18-1.07.149-2.142.298-3.153-.09-.773-.298-1.25-.865-1.487-1.64-.15-.418 0-.627.416-.567zm-7.2-2.445c1.339.149 2.648.477 3.897 1.043.714.299 1.25.835 1.755 1.402a15.362 15.362 0 0 1 2.053 3.072c.208.417.178.566-.208.865a2.046 2.046 0 0 1-1.101.387c-.417.03-.744-.119-.952-.477a142.05 142.05 0 0 0-1.428-2.177c-.595-.895-1.309-1.64-2.41-1.998-.981-.298-1.784-.924-2.498-1.64l-.178-.18c-.03-.029-.03-.059-.09-.118.417-.21.803-.21 1.16-.18zm-1.22.238c.655.984 1.488 1.7 2.53 2.058 1.487.507 2.468 1.491 3.212 2.803.268.448.565.865.833 1.312.505.865 1.13.895 2.082.418.149-.06.268-.179.446-.239-.089.12-.178.269-.297.358-.387.328-.833.477-1.368.477a.847.847 0 0 1-.715-.357c-.505-.746-1.01-1.521-1.517-2.267-.594-.924-1.338-1.67-2.439-2.028-1.011-.328-1.844-.984-2.588-1.76-.119-.208-.297-.417-.178-.775zm-1.249.03c1.041.835 1.993 1.76 2.767 2.893.149.209.149.358-.09.477a15.97 15.97 0 0 1-1.219.686.593.593 0 0 1-.714-.12c-.744-.775-1.517-1.52-2.29-2.296-.268-.268-.566-.537-.833-.805h-.03c.149.209.268.477.446.656.833.865 1.696 1.7 2.558 2.535.566.567.714.596 1.398.209.328-.18.655-.418 1.012-.656-.06.119-.09.208-.179.268-.446.418-.922.746-1.547.865a.64.64 0 0 1-.505-.15 47.28 47.28 0 0 1-1.726-1.729 15.328 15.328 0 0 0-1.01-.954l-.06-.06c-.714-.686-.655-1.312.178-1.849.625-.358 1.25-.447 1.844.03zm-2.32-.805c-.625.358-1.16.716-1.755 1.044-.387.208-.803.179-1.19 0-.416-.21-.803-.478-1.25-.746.596-.328 3.54-.507 4.195-.298zm-4.313.417c.446.299.892.627 1.338.895.536.298 1.071.268 1.577-.03.595-.358 1.13-.775 1.725-1.163.03-.03.09-.06.12-.09.03 0 .03.03.059.06-.06.06-.09.18-.179.209-.624.447-1.249.895-1.904 1.282-.505.299-1.04.269-1.546-.03a8.314 8.314 0 0 1-1.041-.745c-.12-.06-.268-.209-.15-.388zm-8.032 2.088c.268.149.536.328.833.417 1.041.388 2.112.299 3.183.03.595-.149 1.22-.238 1.815-.06.743.21 1.338.657 1.784 1.283.06.06.09.15.15.209-.06-.358-.269-.656-.507-.925-.862-.924-1.933-1.193-3.153-.894a17.15 17.15 0 0 1-1.19.238c-.862.12-1.695-.03-2.498-.358l-.179-.09c-.03 0-.03-.029-.06-.089.06-.06.12-.149.209-.179 2.082-1.431 4.402-1.908 6.842-1.073 2.022.686 3.48 2.863 3.302 4.86-.03.418-.179.836-.328 1.224-.119.328-.267.387-.595.238a2.828 2.828 0 0 1-1.398-1.163l-.06.06c.15.238.269.537.477.715a8.33 8.33 0 0 0 1.19.806c.119.06.297 0 .446 0-.03.298-.238.447-.595.298-.952-.418-1.636-1.074-1.666-2.177-.06-1.61-1.815-3.132-3.778-2.654-.505.119-1.04.208-1.547.268-.862.03-1.636-.15-2.38-.447-.327-.15-.386-.299-.297-.537zm-2.974 1.7c.594-.865 1.427-1.223 2.439-.984 1.25.268 2.439.686 3.54 1.342.03 0 .03.03.119.09-.238.387-.476.775-.744 1.132-.208.299-.536.358-.893.269-.951-.269-1.903-.507-2.825-.776-.387-.119-.774-.208-1.13-.357-.21-.09-.387-.269-.596-.388 0 .238.09.388.298.477.386.179.743.388 1.16.507 1.07.328 2.171.596 3.242.924.357.12.655-.03.893-.298.119-.149.238-.328.357-.477.03.03.06.03.089.06-.238.298-.476.596-.744.894-.208.21-.506.15-.744.09a121.834 121.834 0 0 1-3.123-.865c-.357-.12-.714-.209-1.041-.417-.595-.299-.654-.716-.297-1.223zm-.536-.865c.03.03.06.06.09.06-.268.417-.506.835-.804 1.222-.297.448-.654.865-.982 1.283a.546.546 0 0 1-.297.208c-.684.15-1.309 0-1.993-.298 1.19-1.103 2.618-1.76 3.986-2.475zm-4.105 2.654c.595.477 1.309.626 2.052.507.179-.03.387-.149.476-.298.595-.746 1.13-1.521 1.696-2.296h.03c-.417.626-.833 1.222-1.25 1.849-.119.208-.297.357-.416.566-.297.418-.684.597-1.19.477a14.57 14.57 0 0 1-1.22-.328c-.178-.06-.327-.238-.178-.477zm-1.28.805c.21-.09.536-.03.804.03.714.15 1.398.328 2.082.507.387.09.744.18 1.13.269.15.03.298.089.417.178.208.12.327.299.238.567-.09.239-.149.507-.238.746-.119.357-.357.507-.743.507-1.16.03-2.261-.21-3.332-.537-.506-.15-1.012-.358-1.517-.567-.149-.06-.298-.179-.476-.298.446-.656.981-1.133 1.636-1.402zm-1.665 1.551c.149.15.298.328.506.418.595.238 1.19.507 1.784.685.863.21 1.726.358 2.588.508.506.089.923 0 1.22-.24-.09.3-.238.508-.565.508-.476 0-.952-.03-1.428-.06-1.13-.119-2.201-.447-3.242-.865a3.794 3.794 0 0 1-.744-.447c-.178-.12-.208-.328-.119-.507zm-3.064 2.952c.357-.298.655-.238.982.18-.506.715-1.28.835-2.053.984-.03-.03-.03-.06-.06-.09.387-.358.744-.745 1.131-1.074zM8.9 14.816c.923-.03 1.696-.238 2.38-.835l.06.06c-.179.179-.328.388-.536.537-.476.328-1.04.447-1.636.507-.297.06-.357-.09-.268-.268zm-.09 1.164c.863-.627 1.874-.925 2.915-1.134.506-.119 1.042-.179 1.577-.238.417-.06.655.119.714.537.149.775-.06 1.222-.803 1.49-1.517.508-3.064.955-4.581 1.432-.149.06-.327.03-.506.06.03.328.179.417.476.328.595-.18 1.16-.358 1.755-.537.863-.268 1.725-.507 2.588-.805.387-.12.744-.328 1.07-.477a.753.753 0 0 1-.475.477c-.535.209-1.041.358-1.577.537-1.011.328-2.022.656-3.004.984-.149.06-.327.06-.476.09-.268.089-.387-.03-.446-.27-.357-.983-.06-1.878.773-2.474zm-3.748 5.725c.09-.447.208-.924.417-1.312.446-.894.922-1.79 1.398-2.654.089-.179.238-.298.416-.507.06.209.12.298.12.418.029.656.088 1.312.088 1.998 0 .268-.119.566-.267.775a3.41 3.41 0 0 1-1.517 1.133 3.14 3.14 0 0 1-.566.12c0 .268.09.357.357.328.179-.03.357-.09.506-.18.506-.357 1.07-.596 1.398-1.162l.06.06c-.09.148-.179.297-.298.447a3.877 3.877 0 0 1-1.547 1.103c-.386.09-.654-.12-.565-.567zm-2.29 6.74c.148-1.043.327-2.087.743-3.042.595-1.371 1.636-2.385 2.856-3.19.684-.448 1.458-.806 2.172-1.194.148-.089.297-.119.446-.149.208-.06.416 0 .505.21.179.447.328.924.476 1.4.03.06-.119.18-.208.24-.833.506-1.695.983-2.528 1.55-.714.477-1.369 1.044-1.696 1.879-.178.447-.268.895-.446 1.312-.327.775-.893 1.372-1.547 1.879-.208.15-.446.298-.773.09.119.506.327.596.714.357.594-.358 1.01-.894 1.427-1.461.03-.06.06-.09.15-.12-.15.21-.239.478-.417.657a11.83 11.83 0 0 1-1.25 1.193c-.357.268-.624.149-.684-.299-.03-.447 0-.894.06-1.312zm.148 2.804a4.55 4.55 0 0 1 .536-.537c.654-.597 1.279-1.193 1.963-1.73.238-.209.565-.358.863-.477.267-.12.505-.06.684.179.178.298.357.596.565.895.12.178.09.328-.06.447-.475.477-.951.984-1.427 1.491-.625.686-1.28 1.342-1.904 2.028-.297.328-.387.328-.595-.06-.208-.358-.416-.745-.625-1.103-.03.03-.06.03-.06.06.298.536.596 1.073.923 1.58.119.209.268.12.416-.03.447-.507.893-1.014 1.369-1.52.714-.716 1.428-1.372 2.142-2.088-.06.12-.12.209-.209.298-.654.686-1.338 1.372-1.993 2.058-.446.477-.862.954-1.309 1.431-.297.328-.416.328-.624-.06-.298-.566-.595-1.133-.833-1.7-.268-.447-.12-.834.178-1.162zm-.505 6.65c-.15-.358-.298-.745-.328-1.133-.059-.776-.059-1.551-.059-2.326 0-.15.03-.299.06-.418.118-.388.356-.477.624-.179.357.418.655.865 1.012 1.282.327.388.267.746-.03 1.134a12.58 12.58 0 0 0-.744 1.014c-.238.298-.268.298-.565.03v.119c.119.149.238.298.357.477.149-.12.297-.209.387-.358.267-.328.505-.686.773-.984-.03.06-.03.12-.06.15a19.46 19.46 0 0 1-.922 1.281c-.208.24-.386.24-.505-.089zm2.26 8.112c.06.06.209.06.298.09-.09.357-.208.387-.506.089-.505-.507-.773-1.163-1.011-1.82-.446-1.163-.833-2.326-.744-3.548.12-2.207 1.22-4.175 3.45-5.04 1.19-.448 2.35-.448 3.54.09.239.089.268.208.15.417-.328.626-.923.924-1.577 1.103-.327.09-.684.15-1.012.268-1.398.418-2.141 1.61-2.082 3.162.03.835.179 1.64.387 2.445.03.12.06.239.03.358a29.825 29.825 0 0 1-.476 1.52c-.12.3-.238.329-.476.12-.387-.388-.714-.775-1.041-1.103.208.596.505 1.312 1.07 1.849zm.952-.477c.179-.597.447-1.193.685-1.79.059-.179.178-.358.297-.507.238-.298.387-.358.744-.179.416.209.803.448 1.19.716.356.268.386.626.238 1.044-.268.775-.476 1.58-.744 2.356-.149.387-.327.775-.565 1.103-.209.328-.566.358-.952.239-.417-.15-.714-.447-.982-.835.149.924 1.25 1.52 1.963 1.044-.148.387-.505.566-.892.447-.773-.209-1.339-.984-1.309-1.939.06-.536.179-1.133.327-1.7zm2.737 7.217c-.09.06-.327.06-.416-.03-.238-.18-.506-.388-.655-.656-.535-.776-1.011-1.58-1.517-2.386.12.268.179.537.327.775.506.835 1.012 1.67 1.547 2.505.09.15.208.299.357.388.149.09.327.15.506.209-.09.298-.298.388-.536.09-.327-.359-.654-.746-.922-1.194-.476-.745-.892-1.55-1.309-2.326-.089-.179-.089-.388-.148-.566.03 0 .06-.03.089-.03.03.03.06.09.09.119-.06-.179.059-.179.148-.15.238.09.476.18.684.329.625.388 1.25.775 1.844 1.223.506.417.446 1.342-.089 1.7zm3.956-1.73c-.089.626-.208 1.223-.267 1.849-.12.865-.417 1.7-.774 2.475-.119.268-.297.477-.416.746-.09.179-.208.179-.357.09-.595-.359-1.041-.895-1.428-1.462a1.923 1.923 0 0 0-.238-.269c.297.686.744 1.253 1.28 1.76.059.06.118.09.178.15.446.327.476.327.773-.12.03-.06.06-.09.149-.12-.149.24-.268.478-.447.686-.03.06-.237.06-.297 0a9.255 9.255 0 0 1-.982-.864 4.648 4.648 0 0 1-.476-.597c-.178-.268-.267-.537-.208-.865.238-1.044.476-2.057.714-3.101.06-.239.09-.477.179-.716.119-.328.327-.477.654-.417.536.089 1.1.208 1.636.357.268.03.357.18.327.418zm.06 3.608c.06-.536.09-1.043.149-1.58.03-.388.208-.477.595-.448 1.457.18 2.944.418 4.432.388.267 0 .535.03.803.09.506.09.654.298.684.805.03.626-.208.924-.803.954-1.904.15-3.808.09-5.711-.417-.09.238 0 .358.238.387.862.15 1.725.358 2.588.418 1.07.06 2.141-.03 3.242-.03.119 0 .208-.06.327-.09-.03.21-.178.329-.386.358-.417.03-.863.09-1.28.09-1.338.03-2.677 0-3.986-.298-.178-.03-.357-.12-.535-.15-.298-.06-.387-.208-.357-.477zm2.44 4.832c.118.268.178.536.267.805v.209c-.803-.299-1.309-.895-1.904-1.432.03-.06.06-.09.06-.09 1.04-.566 1.22-.417 1.576.508zm.029 1.58a4.487 4.487 0 0 1-.774-.537 13.493 13.493 0 0 1-.922-.924c-.089-.09-.089-.269-.148-.388h.089c.625.627 1.22 1.312 2.082 1.67 0 .269-.178.269-.327.18zm.743-.596a11.866 11.866 0 0 1-.832-4.175c0-.06 0-.12.03-.269h1.933c.238 0 .416.15.506.388.178.567.327 1.163.535 1.73.297.864.595 1.7.922 2.564.03.06.03.12.06.15.148.447.06.596-.417.536-1.19-.149-2.171-.596-2.737-1.76-.03-.03-.059-.089-.089-.119.357 1.76 1.726 2.684 3.45 2.207-.148.418-.505.448-.802.448-1.22-.06-2.112-.537-2.559-1.7zm6.099 4.503a11.01 11.01 0 0 1-1.666-.567c-.863-.417-1.696-.924-2.558-1.431-.09-.06-.15-.12-.238-.18.148-.208.267-.089.416-.029.922.507 1.844 1.044 2.796 1.521.357.179.774.298 1.19.388.208.06.446 0 .655 0 0 .238-.238.417-.595.298zm8.09 2.356c-.535 0-1.07.03-1.576-.09-.892-.178-1.785-.477-2.677-.715-.684-.209-1.25-.597-1.725-1.104a16.083 16.083 0 0 1-2.707-3.907c-.06-.149-.12-.298-.149-.447-.06-.298.06-.537.327-.626a13.783 13.783 0 0 1 1.577-.477c.119-.03.357.09.446.209.297.387.565.805.803 1.222.208.358.417.716.625 1.044.624 1.104 1.547 1.82 2.766 2.237.922.298 1.666.894 2.35 1.55.09.09.179.21.268.329a1.15 1.15 0 0 1-.863.149c-.684-.15-1.338-.269-1.993-.478a21.17 21.17 0 0 1-2.142-.834c-.922-.418-1.636-1.134-2.26-1.91-.595-.745-1.13-1.52-1.636-2.206.06.12.148.298.267.507a16.794 16.794 0 0 0 2.112 3.042c.655.745 1.428 1.342 2.41 1.58.982.239 1.993.478 2.975.686.446.09.892.06 1.309-.149-.09.298-.298.388-.506.388zm1.31-.447c-.833-.686-1.607-1.491-2.202-2.386-.089-.12-.148-.269-.208-.388-.268-.537-.208-.835.298-1.193.416-.298.862-.477 1.368-.388.178.03.387.12.535.24a153.29 153.29 0 0 1 3.154 3.07c.03.03.03.06.06.09-.269.299-.626.418-.983.477a2.47 2.47 0 0 1-1.874-.387c-.981-.656-1.874-1.402-2.528-2.416l-.06.06c.209.328.357.715.625.984a29.26 29.26 0 0 0 1.874 1.968c.744.716 2.082.507 2.796-.09.09-.059.179-.148.298-.178-.06.09-.09.209-.179.268-.595.656-2.052 1.014-2.974.269zm6.752.835c-.297.09-.595.178-.892.208-.952.09-1.904.18-2.856-.03-.327-.089-.416-.208-.357-.417.327.09.625.209.952.239.922.06 1.874.06 2.796-.15.209-.03.387-.119.595-.178.03.03.06.03.06.06-.09.089-.179.238-.298.268zm7.883-1.79c-.714.507-1.517.776-2.32 1.014-.833.239-1.666.448-2.529.418-2.707-.06-4.819-1.551-5.265-4.325-.149-.984-.09-1.938.12-2.922.118-.507.297-.567.713-.268.387.268.744.566 1.13.864.387.328.476.776.536 1.253.09.626.238 1.193.595 1.73.476.715 1.16 1.014 1.963 1.103.833.09 1.666.06 2.47-.268.356-.15.713-.15 1.07-.06.506.15.982.268 1.458.388.119.03.208.09.386.179-.386.238-.684.477-1.011.626a11.944 11.944 0 0 1-3.183.984c-1.428.209-2.766 0-4.016-.716a4.6 4.6 0 0 1-1.725-1.819.91.91 0 0 0-.149-.209c.179.567.476 1.074.863 1.492 1.04 1.133 2.38 1.64 3.897 1.67 1.547.03 3.004-.388 4.402-1.044a7.621 7.621 0 0 0 1.041-.656c.03 0 .03 0 .06.03-.12.149-.298.387-.506.536zm2.796-1.49c-.386.387-.833.447-1.368.327a20.838 20.838 0 0 1-3.927-1.282c-.119-.06-.208-.12-.327-.18-.06-.029-.119-.089-.208-.148.06-.09.119-.15.149-.18 1.487.746 3.034 1.253 4.67 1.581.416.09.744-.06 1.041-.328.268-.268.506-.566.773-.864-.178.417-.505.745-.803 1.073zm4.909-2.148c-.655.477-1.34.924-2.023 1.342a14.97 14.97 0 0 1-1.547.775c-.149.09-.327.12-.506.18-.03-.03-.06-.06-.06-.09.06-.06.12-.18.18-.209a16.44 16.44 0 0 0 4.342-2.445c-.148.149-.238.328-.386.447zm-3.838 1.461c.536-.775 1.071-1.55 1.636-2.326.149-.209.387-.298.655-.298.595 0 1.13.09 1.725.387-1.19 1.044-2.528 1.7-3.897 2.327-.06-.03-.089-.06-.119-.09zm7.377-4.294c-.535.507-1.07.984-1.606 1.49-.327.27-.684.329-1.1.21-1.071-.269-2.172-.507-3.273-.746-.119-.03-.267-.06-.386-.12-.268-.089-.447-.297-.417-.566.03-.268.09-.566.149-.835.06-.268.149-.537.178-.805.09-.358.179-.447.536-.417a20.73 20.73 0 0 1 3.837.715c.595.18 1.19.418 1.815.656-.684.776-1.428 1.283-2.44 1.253-1.249-.06-2.498-.328-3.688-.686-.09-.03-.179-.06-.298-.12 0 .299.12.448.357.537.298.09.595.15.893.21.952.208 1.904.417 2.855.685.387.09.714 0 1.012-.238.476-.388.922-.806 1.368-1.223.06-.06.09-.18.12-.269.059.03.088.09.148.12.03.03 0 .09-.06.149zm3.778-3.847c-.416.447-.833.894-1.279 1.342-.208.209-.297.209-.446-.06l-.357-.716c-.09-.208-.03-.387.119-.537.268-.298 1.606-.805 2.053-.775-.238.268-.417.507-.655.746-.238.268-.506.477-.744.745-.178.18-.327.18-.446-.06a1.69 1.69 0 0 0-.238-.387c-.03 0-.03.03-.06.03.15.268.269.566.447.805.119.209.268.06.387-.03.416-.417.833-.835 1.22-1.252.059-.06.118-.12.207-.18-.059.09-.119.24-.208.329zm.566-2.416c-.685.626-1.518.895-2.41 1.103-.952.21-1.904.329-2.886.478-.03.149 0 .298.239.298 1.487-.12 2.945-.298 4.283-.954a2.942 2.942 0 0 0 1.309-1.104c.03 0 .03.03.06.03-.12.179-.209.358-.358.507-.476.567-1.1.865-1.755 1.103-1.16.388-2.35.567-3.57.657-.267.03-.356-.06-.356-.329.03-.656.06-1.282.089-1.938 0-.179.09-.268.268-.328.684-.179 1.368-.328 2.023-.507.416-.12.803-.268 1.22-.388.683-.238 1.367-.477 2.081-.715.238-.09.357-.03.447.238.238.835-.15 1.372-.684 1.85zm3.54-5.13c-.239.537-.417 1.074-.685 1.581-.446.835-.952 1.64-1.428 2.446-.06.119-.06.268-.089.387.03 0 .06.03.09.03.089-.09.148-.179.237-.268l.03.03a5.032 5.032 0 0 0-.327.536c-.03 0-.06-.03-.09-.03 0-.149-.03-.268-.03-.417l-.178-2.595c-.03-.417.03-.805.417-1.103a5.916 5.916 0 0 1 1.487-.924c.12-.06.298-.03.417 0 .148.03.238.149.148.328zm1.19-3.37c-.417.716-1.042 1.223-1.696 1.73-1.071.835-2.202 1.581-3.51 2.088-.12.06-.268.09-.417.12.03.089.09.208.149.387 2.201-.865 4.075-2.177 5.592-3.966-.178 1.043-3.986 3.817-5.74 4.204-.09-.387-.21-.775-.298-1.162-.06-.269-.12-.567-.179-.836-.09-.387-.06-.477.268-.715.505-.328 1.041-.597 1.547-.955.595-.387 1.16-.805 1.725-1.252.476-.388.803-.865.952-1.491a5.428 5.428 0 0 1 1.517-2.535c.149-.15.297-.298.476-.388.178-.09.446-.149.565-.09.149.09.268.388.238.567-.119 1.551-.446 2.983-1.19 4.295zm1.01-5.964a85.696 85.696 0 0 1-2.439 2.207c-.267.239-.624.358-.951.507-.209.09-.417.03-.566-.15-.238-.327-.505-.685-.684-1.043-.178-.358-.149-.716.149-1.044.535-.566 1.1-1.103 1.636-1.67l1.428-1.52c.089-.09.148-.18.238-.269.267-.268.416-.268.624.06.298.477.536.984.804 1.46.119.24.089.418-.06.597-.297.299-.595.597-.892.865a38.74 38.74 0 0 1-1.636 1.491 3.636 3.636 0 0 1-.863.507c-.357.15-.565.09-.803-.208l-.536-.716c.179.507.447.954.863 1.282.09.09.327.09.446.03.387-.179.774-.358 1.1-.626.774-.656 1.518-1.372 2.262-2.058.089-.09.148-.179.208-.268.03 0 .03.03.06.03-.15.208-.268.387-.387.536zm.804-3.34c-.09.418-.238.477-.536.179-.386-.447-.743-.925-1.07-1.312.178.656 1.13 1.819 1.576 1.879-.06.298-.178.387-.357.208-.625-.566-1.19-1.193-1.398-2.057-.119-.448-.03-.865.238-1.253.238-.358.476-.686.773-.984.268-.268.536-.179.655.209.089.298.148.626.148.954.03.716.15 1.431-.03 2.177z"/></defs></svg>